<?plantuml 1.2026.2beta3?><svg xmlns="http://www.w3.org/2000/svg" xmlns:xlink="http://www.w3.org/1999/xlink" contentStyleType="text/css" data-diagram-type="MINDMAP" height="2780px" preserveAspectRatio="none" style="width:1036px;height:2780px;background:#FFFFFF;" version="1.1" viewBox="0 0 1036 2780" width="1036px" zoomAndPan="magnify"><defs/><g><rect fill="#F1F1F1" height="36.2969" rx="12.5" ry="12.5" style="stroke:#181818;stroke-width:1.5;" width="270.4346" x="10" y="1371.125"/><text fill="#000000" font-family="sans-serif" font-size="14" lengthAdjust="spacing" textLength="250.4346" x="20" y="1394.1201">AWS Services for Full-Stack Hosting</text><rect fill="#F1F1F1" height="36.2969" rx="12.5" ry="12.5" style="stroke:#181818;stroke-width:1.5;" width="152.9521" x="330.4346" y="104.4453"/><text fill="#000000" font-family="sans-serif" font-size="14" lengthAdjust="spacing" textLength="132.9521" x="340.4346" y="127.4404">Core AWS Services</text><rect fill="#F1F1F1" height="36.2969" rx="12.5" ry="12.5" style="stroke:#181818;stroke-width:1.5;" width="207.9404" x="533.3867" y="20"/><text fill="#000000" font-family="sans-serif" font-size="14" lengthAdjust="spacing" textLength="187.9404" x="543.3867" y="42.9951">AWS Account &amp; IAM Basics</text><path d="M483.3867,122.5938 L493.3867,122.5938 C508.3867,122.5938 508.3867,38.1484 523.3867,38.1484 L533.3867,38.1484" fill="none" style="stroke:#181818;stroke-width:1;"/><rect fill="#F1F1F1" height="36.2969" rx="12.5" ry="12.5" style="stroke:#181818;stroke-width:1.5;" width="256.9404" x="533.3867" y="76.2969"/><text fill="#000000" font-family="sans-serif" font-size="14" lengthAdjust="spacing" textLength="236.9404" x="543.3867" y="99.292">AWS Regions &amp; Availability Zones</text><path d="M483.3867,122.5938 L493.3867,122.5938 C508.3867,122.5938 508.3867,94.4453 523.3867,94.4453 L533.3867,94.4453" fill="none" style="stroke:#181818;stroke-width:1;"/><rect fill="#F1F1F1" height="36.2969" rx="12.5" ry="12.5" style="stroke:#181818;stroke-width:1.5;" width="197.6113" x="533.3867" y="132.5938"/><text fill="#000000" font-family="sans-serif" font-size="14" lengthAdjust="spacing" textLength="177.6113" x="543.3867" y="155.5889">IAM Users, Roles, Policies</text><path d="M483.3867,122.5938 L493.3867,122.5938 C508.3867,122.5938 508.3867,150.7422 523.3867,150.7422 L533.3867,150.7422" fill="none" style="stroke:#181818;stroke-width:1;"/><rect fill="#F1F1F1" height="36.2969" rx="12.5" ry="12.5" style="stroke:#181818;stroke-width:1.5;" width="180.8496" x="533.3867" y="188.8906"/><text fill="#000000" font-family="sans-serif" font-size="14" lengthAdjust="spacing" textLength="160.8496" x="543.3867" y="211.8857">Security Best Practices</text><path d="M483.3867,122.5938 L493.3867,122.5938 C508.3867,122.5938 508.3867,207.0391 523.3867,207.0391 L533.3867,207.0391" fill="none" style="stroke:#181818;stroke-width:1;"/><path d="M280.4346,1389.2734 L290.4346,1389.2734 C305.4346,1389.2734 305.4346,122.5938 320.4346,122.5938 L330.4346,122.5938" fill="none" style="stroke:#181818;stroke-width:1;"/><rect fill="#F1F1F1" height="36.2969" rx="12.5" ry="12.5" style="stroke:#181818;stroke-width:1.5;" width="83.8408" x="330.4346" y="329.6328"/><text fill="#000000" font-family="sans-serif" font-size="14" lengthAdjust="spacing" textLength="63.8408" x="340.4346" y="352.6279">Compute</text><rect fill="#F1F1F1" height="36.2969" rx="12.5" ry="12.5" style="stroke:#181818;stroke-width:1.5;" width="165.1885" x="464.2754" y="245.1875"/><text fill="#000000" font-family="sans-serif" font-size="14" lengthAdjust="spacing" textLength="145.1885" x="474.2754" y="268.1826">EC2 - Virtual Servers</text><path d="M414.2754,347.7813 L424.2754,347.7813 C439.2754,347.7813 439.2754,263.3359 454.2754,263.3359 L464.2754,263.3359" fill="none" style="stroke:#181818;stroke-width:1;"/><rect fill="#F1F1F1" height="36.2969" rx="12.5" ry="12.5" style="stroke:#181818;stroke-width:1.5;" width="339.498" x="464.2754" y="301.4844"/><text fill="#000000" font-family="sans-serif" font-size="14" lengthAdjust="spacing" textLength="319.498" x="474.2754" y="324.4795">Elastic Beanstalk - Managed App Deployment</text><path d="M414.2754,347.7813 L424.2754,347.7813 C439.2754,347.7813 439.2754,319.6328 454.2754,319.6328 L464.2754,319.6328" fill="none" style="stroke:#181818;stroke-width:1;"/><rect fill="#F1F1F1" height="36.2969" rx="12.5" ry="12.5" style="stroke:#181818;stroke-width:1.5;" width="272.1367" x="464.2754" y="357.7813"/><text fill="#000000" font-family="sans-serif" font-size="14" lengthAdjust="spacing" textLength="252.1367" x="474.2754" y="380.7764">AWS Lambda - Serverless Functions</text><path d="M414.2754,347.7813 L424.2754,347.7813 C439.2754,347.7813 439.2754,375.9297 454.2754,375.9297 L464.2754,375.9297" fill="none" style="stroke:#181818;stroke-width:1;"/><rect fill="#F1F1F1" height="36.2969" rx="12.5" ry="12.5" style="stroke:#181818;stroke-width:1.5;" width="162.3311" x="464.2754" y="414.0781"/><text fill="#000000" font-family="sans-serif" font-size="14" lengthAdjust="spacing" textLength="142.3311" x="474.2754" y="437.0732">Auto Scaling Groups</text><path d="M414.2754,347.7813 L424.2754,347.7813 C439.2754,347.7813 439.2754,432.2266 454.2754,432.2266 L464.2754,432.2266" fill="none" style="stroke:#181818;stroke-width:1;"/><path d="M280.4346,1389.2734 L290.4346,1389.2734 C305.4346,1389.2734 305.4346,347.7813 320.4346,347.7813 L330.4346,347.7813" fill="none" style="stroke:#181818;stroke-width:1;"/><rect fill="#F1F1F1" height="36.2969" rx="12.5" ry="12.5" style="stroke:#181818;stroke-width:1.5;" width="100.1035" x="330.4346" y="611.1172"/><text fill="#000000" font-family="sans-serif" font-size="14" lengthAdjust="spacing" textLength="80.1035" x="340.4346" y="634.1123">Networking</text><rect fill="#F1F1F1" height="36.2969" rx="12.5" ry="12.5" style="stroke:#181818;stroke-width:1.5;" width="205.7461" x="480.5381" y="470.375"/><text fill="#000000" font-family="sans-serif" font-size="14" lengthAdjust="spacing" textLength="185.7461" x="490.5381" y="493.3701">VPC - Virtual Private Cloud</text><path d="M430.5381,629.2656 L440.5381,629.2656 C455.5381,629.2656 455.5381,488.5234 470.5381,488.5234 L480.5381,488.5234" fill="none" style="stroke:#181818;stroke-width:1;"/><rect fill="#F1F1F1" height="36.2969" rx="12.5" ry="12.5" style="stroke:#181818;stroke-width:1.5;" width="202.8408" x="480.5381" y="526.6719"/><text fill="#000000" font-family="sans-serif" font-size="14" lengthAdjust="spacing" textLength="182.8408" x="490.5381" y="549.667">Subnets (Public &amp; Private)</text><path d="M430.5381,629.2656 L440.5381,629.2656 C455.5381,629.2656 455.5381,544.8203 470.5381,544.8203 L480.5381,544.8203" fill="none" style="stroke:#181818;stroke-width:1;"/><rect fill="#F1F1F1" height="36.2969" rx="12.5" ry="12.5" style="stroke:#181818;stroke-width:1.5;" width="196.9004" x="480.5381" y="582.9688"/><text fill="#000000" font-family="sans-serif" font-size="14" lengthAdjust="spacing" textLength="176.9004" x="490.5381" y="605.9639">Security Groups &amp; NACLs</text><path d="M430.5381,629.2656 L440.5381,629.2656 C455.5381,629.2656 455.5381,601.1172 470.5381,601.1172 L480.5381,601.1172" fill="none" style="stroke:#181818;stroke-width:1;"/><rect fill="#F1F1F1" height="36.2969" rx="12.5" ry="12.5" style="stroke:#181818;stroke-width:1.5;" width="250.6445" x="480.5381" y="639.2656"/><text fill="#000000" font-family="sans-serif" font-size="14" lengthAdjust="spacing" textLength="230.6445" x="490.5381" y="662.2607">Internet Gateway / NAT Gateway</text><path d="M430.5381,629.2656 L440.5381,629.2656 C455.5381,629.2656 455.5381,657.4141 470.5381,657.4141 L480.5381,657.4141" fill="none" style="stroke:#181818;stroke-width:1;"/><rect fill="#F1F1F1" height="36.2969" rx="12.5" ry="12.5" style="stroke:#181818;stroke-width:1.5;" width="111.5332" x="480.5381" y="695.5625"/><text fill="#000000" font-family="sans-serif" font-size="14" lengthAdjust="spacing" textLength="91.5332" x="490.5381" y="718.5576">Route Tables</text><path d="M430.5381,629.2656 L440.5381,629.2656 C455.5381,629.2656 455.5381,713.7109 470.5381,713.7109 L480.5381,713.7109" fill="none" style="stroke:#181818;stroke-width:1;"/><rect fill="#F1F1F1" height="36.2969" rx="12.5" ry="12.5" style="stroke:#181818;stroke-width:1.5;" width="252.2305" x="480.5381" y="751.8594"/><text fill="#000000" font-family="sans-serif" font-size="14" lengthAdjust="spacing" textLength="232.2305" x="490.5381" y="774.8545">Elastic Load Balancer (ELB / ALB)</text><path d="M430.5381,629.2656 L440.5381,629.2656 C455.5381,629.2656 455.5381,770.0078 470.5381,770.0078 L480.5381,770.0078" fill="none" style="stroke:#181818;stroke-width:1;"/><path d="M280.4346,1389.2734 L290.4346,1389.2734 C305.4346,1389.2734 305.4346,629.2656 320.4346,629.2656 L330.4346,629.2656" fill="none" style="stroke:#181818;stroke-width:1;"/><rect fill="#F1F1F1" height="36.2969" rx="12.5" ry="12.5" style="stroke:#181818;stroke-width:1.5;" width="74.7764" x="330.4346" y="920.75"/><text fill="#000000" font-family="sans-serif" font-size="14" lengthAdjust="spacing" textLength="54.7764" x="340.4346" y="943.7451">Storage</text><rect fill="#F1F1F1" height="36.2969" rx="12.5" ry="12.5" style="stroke:#181818;stroke-width:1.5;" width="290.5186" x="455.2109" y="808.1563"/><text fill="#000000" font-family="sans-serif" font-size="14" lengthAdjust="spacing" textLength="270.5186" x="465.2109" y="831.1514">S3 - Hosting static UI (Angular / React)</text><path d="M405.2109,938.8984 L415.2109,938.8984 C430.2109,938.8984 430.2109,826.3047 445.2109,826.3047 L455.2109,826.3047" fill="none" style="stroke:#181818;stroke-width:1;"/><rect fill="#F1F1F1" height="36.2969" rx="12.5" ry="12.5" style="stroke:#181818;stroke-width:1.5;" width="250.7266" x="455.2109" y="864.4531"/><text fill="#000000" font-family="sans-serif" font-size="14" lengthAdjust="spacing" textLength="230.7266" x="465.2109" y="887.4482">S3 Bucket Policies &amp; Permissions</text><path d="M405.2109,938.8984 L415.2109,938.8984 C430.2109,938.8984 430.2109,882.6016 445.2109,882.6016 L455.2109,882.6016" fill="none" style="stroke:#181818;stroke-width:1;"/><rect fill="#F1F1F1" height="36.2969" rx="12.5" ry="12.5" style="stroke:#181818;stroke-width:1.5;" width="233.2471" x="455.2109" y="920.75"/><text fill="#000000" font-family="sans-serif" font-size="14" lengthAdjust="spacing" textLength="213.2471" x="465.2109" y="943.7451">CloudFront - CDN for UI assets</text><path d="M405.2109,938.8984 L415.2109,938.8984 C430.2109,938.8984 430.2109,938.8984 445.2109,938.8984 L455.2109,938.8984" fill="none" style="stroke:#181818;stroke-width:1;"/><rect fill="#F1F1F1" height="36.2969" rx="12.5" ry="12.5" style="stroke:#181818;stroke-width:1.5;" width="214.0586" x="455.2109" y="977.0469"/><text fill="#000000" font-family="sans-serif" font-size="14" lengthAdjust="spacing" textLength="194.0586" x="465.2109" y="1000.042">EBS - Block Storage for EC2</text><path d="M405.2109,938.8984 L415.2109,938.8984 C430.2109,938.8984 430.2109,995.1953 445.2109,995.1953 L455.2109,995.1953" fill="none" style="stroke:#181818;stroke-width:1;"/><rect fill="#F1F1F1" height="36.2969" rx="12.5" ry="12.5" style="stroke:#181818;stroke-width:1.5;" width="194.8838" x="455.2109" y="1033.3438"/><text fill="#000000" font-family="sans-serif" font-size="14" lengthAdjust="spacing" textLength="174.8838" x="465.2109" y="1056.3389">EFS - Shared File System</text><path d="M405.2109,938.8984 L415.2109,938.8984 C430.2109,938.8984 430.2109,1051.4922 445.2109,1051.4922 L455.2109,1051.4922" fill="none" style="stroke:#181818;stroke-width:1;"/><path d="M280.4346,1389.2734 L290.4346,1389.2734 C305.4346,1389.2734 305.4346,938.8984 320.4346,938.8984 L330.4346,938.8984" fill="none" style="stroke:#181818;stroke-width:1;"/><rect fill="#F1F1F1" height="36.2969" rx="12.5" ry="12.5" style="stroke:#181818;stroke-width:1.5;" width="86.8008" x="330.4346" y="1202.2344"/><text fill="#000000" font-family="sans-serif" font-size="14" lengthAdjust="spacing" textLength="66.8008" x="340.4346" y="1225.2295">Database</text><rect fill="#F1F1F1" height="36.2969" rx="12.5" ry="12.5" style="stroke:#181818;stroke-width:1.5;" width="369.7676" x="467.2354" y="1089.6406"/><text fill="#000000" font-family="sans-serif" font-size="14" lengthAdjust="spacing" textLength="349.7676" x="477.2354" y="1112.6357">RDS (PostgreSQL) - Managed Relational Database</text><path d="M417.2354,1220.3828 L427.2354,1220.3828 C442.2354,1220.3828 442.2354,1107.7891 457.2354,1107.7891 L467.2354,1107.7891" fill="none" style="stroke:#181818;stroke-width:1;"/><rect fill="#F1F1F1" height="36.2969" rx="12.5" ry="12.5" style="stroke:#181818;stroke-width:1.5;" width="198.1514" x="467.2354" y="1145.9375"/><text fill="#000000" font-family="sans-serif" font-size="14" lengthAdjust="spacing" textLength="178.1514" x="477.2354" y="1168.9326">RDS Backup &amp; Snapshots</text><path d="M417.2354,1220.3828 L427.2354,1220.3828 C442.2354,1220.3828 442.2354,1164.0859 457.2354,1164.0859 L467.2354,1164.0859" fill="none" style="stroke:#181818;stroke-width:1;"/><rect fill="#F1F1F1" height="36.2969" rx="12.5" ry="12.5" style="stroke:#181818;stroke-width:1.5;" width="280.1211" x="467.2354" y="1202.2344"/><text fill="#000000" font-family="sans-serif" font-size="14" lengthAdjust="spacing" textLength="260.1211" x="477.2354" y="1225.2295">Parameter Groups &amp; Security Groups</text><path d="M417.2354,1220.3828 L427.2354,1220.3828 C442.2354,1220.3828 442.2354,1220.3828 457.2354,1220.3828 L467.2354,1220.3828" fill="none" style="stroke:#181818;stroke-width:1;"/><rect fill="#F1F1F1" height="36.2969" rx="12.5" ry="12.5" style="stroke:#181818;stroke-width:1.5;" width="280.9756" x="467.2354" y="1258.5313"/><text fill="#000000" font-family="sans-serif" font-size="14" lengthAdjust="spacing" textLength="260.9756" x="477.2354" y="1281.5264">Read Replicas / Multi-AZ Deployment</text><path d="M417.2354,1220.3828 L427.2354,1220.3828 C442.2354,1220.3828 442.2354,1276.6797 457.2354,1276.6797 L467.2354,1276.6797" fill="none" style="stroke:#181818;stroke-width:1;"/><rect fill="#F1F1F1" height="36.2969" rx="12.5" ry="12.5" style="stroke:#181818;stroke-width:1.5;" width="366.1309" x="467.2354" y="1314.8281"/><text fill="#000000" font-family="sans-serif" font-size="14" lengthAdjust="spacing" textLength="346.1309" x="477.2354" y="1337.8232">Aurora PostgreSQL (Optional for high availability)</text><path d="M417.2354,1220.3828 L427.2354,1220.3828 C442.2354,1220.3828 442.2354,1332.9766 457.2354,1332.9766 L467.2354,1332.9766" fill="none" style="stroke:#181818;stroke-width:1;"/><path d="M280.4346,1389.2734 L290.4346,1389.2734 C305.4346,1389.2734 305.4346,1220.3828 320.4346,1220.3828 L330.4346,1220.3828" fill="none" style="stroke:#181818;stroke-width:1;"/><rect fill="#F1F1F1" height="36.2969" rx="12.5" ry="12.5" style="stroke:#181818;stroke-width:1.5;" width="161.709" x="330.4346" y="1455.5703"/><text fill="#000000" font-family="sans-serif" font-size="14" lengthAdjust="spacing" textLength="141.709" x="340.4346" y="1478.5654">Application Services</text><rect fill="#F1F1F1" height="36.2969" rx="12.5" ry="12.5" style="stroke:#181818;stroke-width:1.5;" width="158.5918" x="542.1436" y="1399.2734"/><text fill="#000000" font-family="sans-serif" font-size="14" lengthAdjust="spacing" textLength="138.5918" x="552.1436" y="1422.2686">API Hosting Options</text><rect fill="#F1F1F1" height="36.2969" rx="12.5" ry="12.5" style="stroke:#181818;stroke-width:1.5;" width="180.3096" x="750.7354" y="1371.125"/><text fill="#000000" font-family="sans-serif" font-size="14" lengthAdjust="spacing" textLength="160.3096" x="760.7354" y="1394.1201">EC2 / Elastic Beanstalk</text><path d="M700.7354,1417.4219 L710.7354,1417.4219 C725.7354,1417.4219 725.7354,1389.2734 740.7354,1389.2734 L750.7354,1389.2734" fill="none" style="stroke:#181818;stroke-width:1;"/><rect fill="#F1F1F1" height="36.2969" rx="12.5" ry="12.5" style="stroke:#181818;stroke-width:1.5;" width="273.8184" x="750.7354" y="1427.4219"/><text fill="#000000" font-family="sans-serif" font-size="14" lengthAdjust="spacing" textLength="253.8184" x="760.7354" y="1450.417">Lambda + API Gateway (Serverless)</text><path d="M700.7354,1417.4219 L710.7354,1417.4219 C725.7354,1417.4219 725.7354,1445.5703 740.7354,1445.5703 L750.7354,1445.5703" fill="none" style="stroke:#181818;stroke-width:1;"/><path d="M492.1436,1473.7188 L502.1436,1473.7188 C517.1436,1473.7188 517.1436,1417.4219 532.1436,1417.4219 L542.1436,1417.4219" fill="none" style="stroke:#181818;stroke-width:1;"/><rect fill="#F1F1F1" height="36.2969" rx="12.5" ry="12.5" style="stroke:#181818;stroke-width:1.5;" width="224.2988" x="542.1436" y="1483.7188"/><text fill="#000000" font-family="sans-serif" font-size="14" lengthAdjust="spacing" textLength="204.2988" x="552.1436" y="1506.7139">Route 53 - DNS Management</text><path d="M492.1436,1473.7188 L502.1436,1473.7188 C517.1436,1473.7188 517.1436,1501.8672 532.1436,1501.8672 L542.1436,1501.8672" fill="none" style="stroke:#181818;stroke-width:1;"/><rect fill="#F1F1F1" height="36.2969" rx="12.5" ry="12.5" style="stroke:#181818;stroke-width:1.5;" width="413.6406" x="542.1436" y="1540.0156"/><text fill="#000000" font-family="sans-serif" font-size="14" lengthAdjust="spacing" textLength="393.6406" x="552.1436" y="1563.0107">AWS App Runner - Managed Container/Backend Hosting</text><path d="M492.1436,1473.7188 L502.1436,1473.7188 C517.1436,1473.7188 517.1436,1558.1641 532.1436,1558.1641 L542.1436,1558.1641" fill="none" style="stroke:#181818;stroke-width:1;"/><path d="M280.4346,1389.2734 L290.4346,1389.2734 C305.4346,1389.2734 305.4346,1473.7188 320.4346,1473.7188 L330.4346,1473.7188" fill="none" style="stroke:#181818;stroke-width:1;"/><rect fill="#F1F1F1" height="36.2969" rx="12.5" ry="12.5" style="stroke:#181818;stroke-width:1.5;" width="172.1748" x="330.4346" y="1737.0547"/><text fill="#000000" font-family="sans-serif" font-size="14" lengthAdjust="spacing" textLength="152.1748" x="340.4346" y="1760.0498">Security &amp; Monitoring</text><rect fill="#F1F1F1" height="36.2969" rx="12.5" ry="12.5" style="stroke:#181818;stroke-width:1.5;" width="274.7686" x="552.6094" y="1596.3125"/><text fill="#000000" font-family="sans-serif" font-size="14" lengthAdjust="spacing" textLength="254.7686" x="562.6094" y="1619.3076">AWS WAF - Web Application Firewall</text><path d="M502.6094,1755.2031 L512.6094,1755.2031 C527.6094,1755.2031 527.6094,1614.4609 542.6094,1614.4609 L552.6094,1614.4609" fill="none" style="stroke:#181818;stroke-width:1;"/><rect fill="#F1F1F1" height="36.2969" rx="12.5" ry="12.5" style="stroke:#181818;stroke-width:1.5;" width="228.5918" x="552.6094" y="1652.6094"/><text fill="#000000" font-family="sans-serif" font-size="14" lengthAdjust="spacing" textLength="208.5918" x="562.6094" y="1675.6045">AWS Shield - DDoS Protection</text><path d="M502.6094,1755.2031 L512.6094,1755.2031 C527.6094,1755.2031 527.6094,1670.7578 542.6094,1670.7578 L552.6094,1670.7578" fill="none" style="stroke:#181818;stroke-width:1;"/><rect fill="#F1F1F1" height="36.2969" rx="12.5" ry="12.5" style="stroke:#181818;stroke-width:1.5;" width="252.0938" x="552.6094" y="1708.9063"/><text fill="#000000" font-family="sans-serif" font-size="14" lengthAdjust="spacing" textLength="232.0938" x="562.6094" y="1731.9014">AWS CloudTrail - Auditing &amp; Logs</text><path d="M502.6094,1755.2031 L512.6094,1755.2031 C527.6094,1755.2031 527.6094,1727.0547 542.6094,1727.0547 L552.6094,1727.0547" fill="none" style="stroke:#181818;stroke-width:1;"/><rect fill="#F1F1F1" height="36.2969" rx="12.5" ry="12.5" style="stroke:#181818;stroke-width:1.5;" width="314.7588" x="552.6094" y="1765.2031"/><text fill="#000000" font-family="sans-serif" font-size="14" lengthAdjust="spacing" textLength="294.7588" x="562.6094" y="1788.1982">Amazon CloudWatch - Monitoring &amp; Alerts</text><path d="M502.6094,1755.2031 L512.6094,1755.2031 C527.6094,1755.2031 527.6094,1783.3516 542.6094,1783.3516 L552.6094,1783.3516" fill="none" style="stroke:#181818;stroke-width:1;"/><rect fill="#F1F1F1" height="36.2969" rx="12.5" ry="12.5" style="stroke:#181818;stroke-width:1.5;" width="396.5234" x="552.6094" y="1821.5"/><text fill="#000000" font-family="sans-serif" font-size="14" lengthAdjust="spacing" textLength="376.5234" x="562.6094" y="1844.4951">AWS Secrets Manager - Store DB credentials securely</text><path d="M502.6094,1755.2031 L512.6094,1755.2031 C527.6094,1755.2031 527.6094,1839.6484 542.6094,1839.6484 L552.6094,1839.6484" fill="none" style="stroke:#181818;stroke-width:1;"/><rect fill="#F1F1F1" height="36.2969" rx="12.5" ry="12.5" style="stroke:#181818;stroke-width:1.5;" width="223.6084" x="552.6094" y="1877.7969"/><text fill="#000000" font-family="sans-serif" font-size="14" lengthAdjust="spacing" textLength="203.6084" x="562.6094" y="1900.792">AWS KMS - Key Management</text><path d="M502.6094,1755.2031 L512.6094,1755.2031 C527.6094,1755.2031 527.6094,1895.9453 542.6094,1895.9453 L552.6094,1895.9453" fill="none" style="stroke:#181818;stroke-width:1;"/><path d="M280.4346,1389.2734 L290.4346,1389.2734 C305.4346,1389.2734 305.4346,1755.2031 320.4346,1755.2031 L330.4346,1755.2031" fill="none" style="stroke:#181818;stroke-width:1;"/><rect fill="#F1F1F1" height="36.2969" rx="12.5" ry="12.5" style="stroke:#181818;stroke-width:1.5;" width="158.4277" x="330.4346" y="2046.6875"/><text fill="#000000" font-family="sans-serif" font-size="14" lengthAdjust="spacing" textLength="138.4277" x="340.4346" y="2069.6826">CI/CD / Deployment</text><rect fill="#F1F1F1" height="36.2969" rx="12.5" ry="12.5" style="stroke:#181818;stroke-width:1.5;" width="147.6953" x="538.8623" y="1934.0938"/><text fill="#000000" font-family="sans-serif" font-size="14" lengthAdjust="spacing" textLength="127.6953" x="548.8623" y="1957.0889">AWS CodePipeline</text><path d="M488.8623,2064.8359 L498.8623,2064.8359 C513.8623,2064.8359 513.8623,1952.2422 528.8623,1952.2422 L538.8623,1952.2422" fill="none" style="stroke:#181818;stroke-width:1;"/><rect fill="#F1F1F1" height="36.2969" rx="12.5" ry="12.5" style="stroke:#181818;stroke-width:1.5;" width="127.7412" x="538.8623" y="1990.3906"/><text fill="#000000" font-family="sans-serif" font-size="14" lengthAdjust="spacing" textLength="107.7412" x="548.8623" y="2013.3857">AWS CodeBuild</text><path d="M488.8623,2064.8359 L498.8623,2064.8359 C513.8623,2064.8359 513.8623,2008.5391 528.8623,2008.5391 L538.8623,2008.5391" fill="none" style="stroke:#181818;stroke-width:1;"/><rect fill="#F1F1F1" height="36.2969" rx="12.5" ry="12.5" style="stroke:#181818;stroke-width:1.5;" width="141.6182" x="538.8623" y="2046.6875"/><text fill="#000000" font-family="sans-serif" font-size="14" lengthAdjust="spacing" textLength="121.6182" x="548.8623" y="2069.6826">AWS CodeDeploy</text><path d="M488.8623,2064.8359 L498.8623,2064.8359 C513.8623,2064.8359 513.8623,2064.8359 528.8623,2064.8359 L538.8623,2064.8359" fill="none" style="stroke:#181818;stroke-width:1;"/><rect fill="#F1F1F1" height="36.2969" rx="12.5" ry="12.5" style="stroke:#181818;stroke-width:1.5;" width="361.1748" x="538.8623" y="2102.9844"/><text fill="#000000" font-family="sans-serif" font-size="14" lengthAdjust="spacing" textLength="341.1748" x="548.8623" y="2125.9795">GitHub Actions / GitLab CI (integrated with AWS)</text><path d="M488.8623,2064.8359 L498.8623,2064.8359 C513.8623,2064.8359 513.8623,2121.1328 528.8623,2121.1328 L538.8623,2121.1328" fill="none" style="stroke:#181818;stroke-width:1;"/><rect fill="#F1F1F1" height="36.2969" rx="12.5" ry="12.5" style="stroke:#181818;stroke-width:1.5;" width="296.0898" x="538.8623" y="2159.2813"/><text fill="#000000" font-family="sans-serif" font-size="14" lengthAdjust="spacing" textLength="276.0898" x="548.8623" y="2182.2764">Elastic Beanstalk Deployment Pipelines</text><path d="M488.8623,2064.8359 L498.8623,2064.8359 C513.8623,2064.8359 513.8623,2177.4297 528.8623,2177.4297 L538.8623,2177.4297" fill="none" style="stroke:#181818;stroke-width:1;"/><path d="M280.4346,1389.2734 L290.4346,1389.2734 C305.4346,1389.2734 305.4346,2064.8359 320.4346,2064.8359 L330.4346,2064.8359" fill="none" style="stroke:#181818;stroke-width:1;"/><rect fill="#F1F1F1" height="36.2969" rx="12.5" ry="12.5" style="stroke:#181818;stroke-width:1.5;" width="225.6934" x="330.4346" y="2328.1719"/><text fill="#000000" font-family="sans-serif" font-size="14" lengthAdjust="spacing" textLength="205.6934" x="340.4346" y="2351.167">Optional / Advanced Services</text><rect fill="#F1F1F1" height="36.2969" rx="12.5" ry="12.5" style="stroke:#181818;stroke-width:1.5;" width="400.2012" x="606.1279" y="2215.5781"/><text fill="#000000" font-family="sans-serif" font-size="14" lengthAdjust="spacing" textLength="380.2012" x="616.1279" y="2238.5732">Amazon Cognito - Authentication &amp; User Management</text><path d="M556.1279,2346.3203 L566.1279,2346.3203 C581.1279,2346.3203 581.1279,2233.7266 596.1279,2233.7266 L606.1279,2233.7266" fill="none" style="stroke:#181818;stroke-width:1;"/><rect fill="#F1F1F1" height="36.2969" rx="12.5" ry="12.5" style="stroke:#181818;stroke-width:1.5;" width="181.8408" x="606.1279" y="2271.875"/><text fill="#000000" font-family="sans-serif" font-size="14" lengthAdjust="spacing" textLength="161.8408" x="616.1279" y="2294.8701">SQS - Message Queues</text><path d="M556.1279,2346.3203 L566.1279,2346.3203 C581.1279,2346.3203 581.1279,2290.0234 596.1279,2290.0234 L606.1279,2290.0234" fill="none" style="stroke:#181818;stroke-width:1;"/><rect fill="#F1F1F1" height="36.2969" rx="12.5" ry="12.5" style="stroke:#181818;stroke-width:1.5;" width="149.8213" x="606.1279" y="2328.1719"/><text fill="#000000" font-family="sans-serif" font-size="14" lengthAdjust="spacing" textLength="129.8213" x="616.1279" y="2351.167">SNS - Notifications</text><path d="M556.1279,2346.3203 L566.1279,2346.3203 C581.1279,2346.3203 581.1279,2346.3203 596.1279,2346.3203 L606.1279,2346.3203" fill="none" style="stroke:#181818;stroke-width:1;"/><rect fill="#F1F1F1" height="36.2969" rx="12.5" ry="12.5" style="stroke:#181818;stroke-width:1.5;" width="342.5264" x="606.1279" y="2384.4688"/><text fill="#000000" font-family="sans-serif" font-size="14" lengthAdjust="spacing" textLength="322.5264" x="616.1279" y="2407.4639">ElasticCache - Redis / Memcached for caching</text><path d="M556.1279,2346.3203 L566.1279,2346.3203 C581.1279,2346.3203 581.1279,2402.6172 596.1279,2402.6172 L606.1279,2402.6172" fill="none" style="stroke:#181818;stroke-width:1;"/><rect fill="#F1F1F1" height="36.2969" rx="12.5" ry="12.5" style="stroke:#181818;stroke-width:1.5;" width="337.6387" x="606.1279" y="2440.7656"/><text fill="#000000" font-family="sans-serif" font-size="14" lengthAdjust="spacing" textLength="317.6387" x="616.1279" y="2463.7607">AWS Step Functions - Workflow orchestration</text><path d="M556.1279,2346.3203 L566.1279,2346.3203 C581.1279,2346.3203 581.1279,2458.9141 596.1279,2458.9141 L606.1279,2458.9141" fill="none" style="stroke:#181818;stroke-width:1;"/><path d="M280.4346,1389.2734 L290.4346,1389.2734 C305.4346,1389.2734 305.4346,2346.3203 320.4346,2346.3203 L330.4346,2346.3203" fill="none" style="stroke:#181818;stroke-width:1;"/><rect fill="#F1F1F1" height="36.2969" rx="12.5" ry="12.5" style="stroke:#181818;stroke-width:1.5;" width="160.5537" x="330.4346" y="2609.6563"/><text fill="#000000" font-family="sans-serif" font-size="14" lengthAdjust="spacing" textLength="140.5537" x="340.4346" y="2632.6514">Typical Architecture</text><rect fill="#F1F1F1" height="36.2969" rx="12.5" ry="12.5" style="stroke:#181818;stroke-width:1.5;" width="218.8916" x="540.9883" y="2497.0625"/><text fill="#000000" font-family="sans-serif" font-size="14" lengthAdjust="spacing" textLength="198.8916" x="550.9883" y="2520.0576">Frontend &#8594; S3 + CloudFront</text><path d="M490.9883,2627.8047 L500.9883,2627.8047 C515.9883,2627.8047 515.9883,2515.2109 530.9883,2515.2109 L540.9883,2515.2109" fill="none" style="stroke:#181818;stroke-width:1;"/><rect fill="#F1F1F1" height="36.2969" rx="12.5" ry="12.5" style="stroke:#181818;stroke-width:1.5;" width="440.3623" x="540.9883" y="2553.3594"/><text fill="#000000" font-family="sans-serif" font-size="14" lengthAdjust="spacing" textLength="420.3623" x="550.9883" y="2576.3545">Backend &#8594; EC2 / Elastic Beanstalk / Lambda + API Gateway</text><path d="M490.9883,2627.8047 L500.9883,2627.8047 C515.9883,2627.8047 515.9883,2571.5078 530.9883,2571.5078 L540.9883,2571.5078" fill="none" style="stroke:#181818;stroke-width:1;"/><rect fill="#F1F1F1" height="36.2969" rx="12.5" ry="12.5" style="stroke:#181818;stroke-width:1.5;" width="344.0986" x="540.9883" y="2609.6563"/><text fill="#000000" font-family="sans-serif" font-size="14" lengthAdjust="spacing" textLength="324.0986" x="550.9883" y="2632.6514">Database &#8594; RDS PostgreSQL (Multi-AZ for HA)</text><path d="M490.9883,2627.8047 L500.9883,2627.8047 C515.9883,2627.8047 515.9883,2627.8047 530.9883,2627.8047 L540.9883,2627.8047" fill="none" style="stroke:#181818;stroke-width:1;"/><rect fill="#F1F1F1" height="36.2969" rx="12.5" ry="12.5" style="stroke:#181818;stroke-width:1.5;" width="353.5732" x="540.9883" y="2665.9531"/><text fill="#000000" font-family="sans-serif" font-size="14" lengthAdjust="spacing" textLength="333.5732" x="550.9883" y="2688.9482">Load Balancing &amp; Scaling &#8594; ALB + Auto Scaling</text><path d="M490.9883,2627.8047 L500.9883,2627.8047 C515.9883,2627.8047 515.9883,2684.1016 530.9883,2684.1016 L540.9883,2684.1016" fill="none" style="stroke:#181818;stroke-width:1;"/><rect fill="#F1F1F1" height="36.2969" rx="12.5" ry="12.5" style="stroke:#181818;stroke-width:1.5;" width="291.2568" x="540.9883" y="2722.25"/><text fill="#000000" font-family="sans-serif" font-size="14" lengthAdjust="spacing" textLength="271.2568" x="550.9883" y="2745.2451">Monitoring &#8594; CloudWatch + CloudTrail</text><path d="M490.9883,2627.8047 L500.9883,2627.8047 C515.9883,2627.8047 515.9883,2740.3984 530.9883,2740.3984 L540.9883,2740.3984" fill="none" style="stroke:#181818;stroke-width:1;"/><path d="M280.4346,1389.2734 L290.4346,1389.2734 C305.4346,1389.2734 305.4346,2627.8047 320.4346,2627.8047 L330.4346,2627.8047" fill="none" style="stroke:#181818;stroke-width:1;"/><?plantuml-src TLRRKjj847ttL_GJPSCITadjFaUsOw1YUur5GbNUsb9ZJp7MgEO2vNp0Vi1-udx9Tiz8iWp94p3JtNFwzEaZFZcFrkzLLUwn7fn3zfX3JlP55UJWoLYO1QqlSu_5CzmQvrMr7GpEps5YB9q4ys7Apeh2XCh36Tnb2nYZKyNnSarRPIh7bzaBAeqRfPK_m7TJDHKavwiZwtw3jT74FrP6gq8rrpaLmKh6c9o7bSN2nySJf7qTFCMupvDhk8Hlolg0EcBaakb68tTHS06ik7Vzp74Bh71B9MHr3LEgjJdigV8Tw3dkDoLoNAh3g1pJKl7Jt4gA2jv0Ng1cUk36cb0dI4lohyO-2saIzcqrwQ5QMVM2dc2YJIXJTs5JaNSmN8KDDyqiDJ6Zq-RJ2tozp2RpXhVAa-LakE7mLpp05Ly-j7_5aBLXTk01DvfEgPWRB7bG6gk2B0m_pyUSdSt7ezX3xerbTXA2Zuo_aG4mUvBzzGw6MRKD6YsdhOb7Ccg3nw5uPapj2AKXidlbNCTSR7vc3Glc4YRJPTGSbqJdc8a4SvpptLWRbc039aRnZDFzJExp7LeUuKnfWlpWFEqZ-YbwtA1ByDVJdBbb-5jB-Vryr1lzcZJAF7akxrB6BFvGC_YymjhjJ8DhXHRtnBGVv_5cGga2ePIlcG9qpD0YQAyki-_lb1OizmP7U33yksuWIRixjTq1zhOcZOSrAvKbyCqkhkwwKQL2yJpjnjNxFKYNZTOlOdghfU5H-AEUbFuKDKoNUKFYoSx8Agr3LJ4xHv8dF6PKV7Obb59LdbXAHzuPB4obUDBjtaZ1nsp6bHvfSzBnJ5b6g7KNbkyKwL9mJKtEwsCynJtj0gBW7YpJo45PA5Kaw8oNODlmjiSVN3d6FQ8lTj90XqUSIvFrHqjZs5QMDZKfxOf82QPZu8kIIL6e7JZfZlIXo_ko4Db-eKEVlkXZTrUJAK_e9quqCIMjL4tiCtHoE0vAboSdAJiUtIX_6vYtP5XScG_ckE67OAZODxQMvrp2g_8xIH_zmYUFUA35a5okaocxHlaYBbA-aM93gTaAZP5tlnDYcYcUHSj_AwFyNWXQiEXau-y3XVOZi9IBfV7ggQbmucSJB7R40MigLLmusXToLCOrab_xkiezrKSt5ucnOJzfymh6SfBpDhuG6tqurFoWXenlb0YB9neBHGCJFV_tpx_YUnSzNui1hTxb_XVxnsS_MxwOtbfIp1TBwhj4PoZItcsMnjVpzAJQzkia5TZRvP7UHolcz5GkKRqDkEYjpM3mYJjf_sCO_F7X-lVhlpvSRyZZn_y1?></g></svg>