<?plantuml 1.2026.2beta3?><svg xmlns="http://www.w3.org/2000/svg" xmlns:xlink="http://www.w3.org/1999/xlink" contentStyleType="text/css" data-diagram-type="MINDMAP" height="4131px" preserveAspectRatio="none" style="width:934px;height:4131px;background:#FFFFFF;" version="1.1" viewBox="0 0 934 4131" width="934px" zoomAndPan="magnify"><defs/><g><rect fill="#F1F1F1" height="36.2969" rx="12.5" ry="12.5" style="stroke:#181818;stroke-width:1.5;" width="119.2168" x="10" y="2046.6875"/><text fill="#000000" font-family="sans-serif" font-size="14" lengthAdjust="spacing" textLength="99.2168" x="20" y="2069.6826">Java Concepts</text><rect fill="#F1F1F1" height="36.2969" rx="12.5" ry="12.5" style="stroke:#181818;stroke-width:1.5;" width="101.5186" x="179.2168" y="217.0391"/><text fill="#000000" font-family="sans-serif" font-size="14" lengthAdjust="spacing" textLength="81.5186" x="189.2168" y="240.0342">Core Basics</text><rect fill="#F1F1F1" height="36.2969" rx="12.5" ry="12.5" style="stroke:#181818;stroke-width:1.5;" width="140.3467" x="330.7354" y="20"/><text fill="#000000" font-family="sans-serif" font-size="14" lengthAdjust="spacing" textLength="120.3467" x="340.7354" y="42.9951">Java Architecture</text><path d="M280.7354,235.1875 L290.7354,235.1875 C305.7354,235.1875 305.7354,38.1484 320.7354,38.1484 L330.7354,38.1484" fill="none" style="stroke:#181818;stroke-width:1;"/><rect fill="#F1F1F1" height="36.2969" rx="12.5" ry="12.5" style="stroke:#181818;stroke-width:1.5;" width="110.3779" x="330.7354" y="76.2969"/><text fill="#000000" font-family="sans-serif" font-size="14" lengthAdjust="spacing" textLength="90.3779" x="340.7354" y="99.292">JVM, JRE, JDK</text><path d="M280.7354,235.1875 L290.7354,235.1875 C305.7354,235.1875 305.7354,94.4453 320.7354,94.4453 L330.7354,94.4453" fill="none" style="stroke:#181818;stroke-width:1;"/><rect fill="#F1F1F1" height="36.2969" rx="12.5" ry="12.5" style="stroke:#181818;stroke-width:1.5;" width="184.3906" x="330.7354" y="132.5938"/><text fill="#000000" font-family="sans-serif" font-size="14" lengthAdjust="spacing" textLength="164.3906" x="340.7354" y="155.5889">Data Types &amp; Variables</text><path d="M280.7354,235.1875 L290.7354,235.1875 C305.7354,235.1875 305.7354,150.7422 320.7354,150.7422 L330.7354,150.7422" fill="none" style="stroke:#181818;stroke-width:1;"/><rect fill="#F1F1F1" height="36.2969" rx="12.5" ry="12.5" style="stroke:#181818;stroke-width:1.5;" width="89.959" x="330.7354" y="188.8906"/><text fill="#000000" font-family="sans-serif" font-size="14" lengthAdjust="spacing" textLength="69.959" x="340.7354" y="211.8857">Operators</text><path d="M280.7354,235.1875 L290.7354,235.1875 C305.7354,235.1875 305.7354,207.0391 320.7354,207.0391 L330.7354,207.0391" fill="none" style="stroke:#181818;stroke-width:1;"/><rect fill="#F1F1F1" height="36.2969" rx="12.5" ry="12.5" style="stroke:#181818;stroke-width:1.5;" width="156.3291" x="330.7354" y="245.1875"/><text fill="#000000" font-family="sans-serif" font-size="14" lengthAdjust="spacing" textLength="136.3291" x="340.7354" y="268.1826">Control Statements</text><path d="M280.7354,235.1875 L290.7354,235.1875 C305.7354,235.1875 305.7354,263.3359 320.7354,263.3359 L330.7354,263.3359" fill="none" style="stroke:#181818;stroke-width:1;"/><rect fill="#F1F1F1" height="36.2969" rx="12.5" ry="12.5" style="stroke:#181818;stroke-width:1.5;" width="145.4463" x="330.7354" y="301.4844"/><text fill="#000000" font-family="sans-serif" font-size="14" lengthAdjust="spacing" textLength="125.4463" x="340.7354" y="324.4795">Classes &amp; Objects</text><path d="M280.7354,235.1875 L290.7354,235.1875 C305.7354,235.1875 305.7354,319.6328 320.7354,319.6328 L330.7354,319.6328" fill="none" style="stroke:#181818;stroke-width:1;"/><rect fill="#F1F1F1" height="36.2969" rx="12.5" ry="12.5" style="stroke:#181818;stroke-width:1.5;" width="189.0459" x="330.7354" y="357.7813"/><text fill="#000000" font-family="sans-serif" font-size="14" lengthAdjust="spacing" textLength="169.0459" x="340.7354" y="380.7764">Methods &amp; Constructors</text><path d="M280.7354,235.1875 L290.7354,235.1875 C305.7354,235.1875 305.7354,375.9297 320.7354,375.9297 L330.7354,375.9297" fill="none" style="stroke:#181818;stroke-width:1;"/><rect fill="#F1F1F1" height="36.2969" rx="12.5" ry="12.5" style="stroke:#181818;stroke-width:1.5;" width="521.7783" x="330.7354" y="414.0781"/><text fill="#000000" font-family="sans-serif" font-size="14" lengthAdjust="spacing" textLength="501.7783" x="340.7354" y="437.0732">OOP Principles (Encapsulation, Abstraction, Inheritance, Polymorphism)</text><path d="M280.7354,235.1875 L290.7354,235.1875 C305.7354,235.1875 305.7354,432.2266 320.7354,432.2266 L330.7354,432.2266" fill="none" style="stroke:#181818;stroke-width:1;"/><path d="M129.2168,2064.8359 L139.2168,2064.8359 C154.2168,2064.8359 154.2168,235.1875 169.2168,235.1875 L179.2168,235.1875" fill="none" style="stroke:#181818;stroke-width:1;"/><rect fill="#F1F1F1" height="36.2969" rx="12.5" ry="12.5" style="stroke:#181818;stroke-width:1.5;" width="161.292" x="179.2168" y="611.1172"/><text fill="#000000" font-family="sans-serif" font-size="14" lengthAdjust="spacing" textLength="141.292" x="189.2168" y="634.1123">Type System &amp; OOP</text><rect fill="#F1F1F1" height="36.2969" rx="12.5" ry="12.5" style="stroke:#181818;stroke-width:1.5;" width="225.748" x="390.5088" y="470.375"/><text fill="#000000" font-family="sans-serif" font-size="14" lengthAdjust="spacing" textLength="205.748" x="400.5088" y="493.3701">Interfaces &amp; Abstract Classes</text><path d="M340.5088,629.2656 L350.5088,629.2656 C365.5088,629.2656 365.5088,488.5234 380.5088,488.5234 L390.5088,488.5234" fill="none" style="stroke:#181818;stroke-width:1;"/><rect fill="#F1F1F1" height="36.2969" rx="12.5" ry="12.5" style="stroke:#181818;stroke-width:1.5;" width="255.874" x="390.5088" y="526.6719"/><text fill="#000000" font-family="sans-serif" font-size="14" lengthAdjust="spacing" textLength="235.874" x="400.5088" y="549.667">Method Overloading &amp; Overriding</text><path d="M340.5088,629.2656 L350.5088,629.2656 C365.5088,629.2656 365.5088,544.8203 380.5088,544.8203 L390.5088,544.8203" fill="none" style="stroke:#181818;stroke-width:1;"/><rect fill="#F1F1F1" height="36.2969" rx="12.5" ry="12.5" style="stroke:#181818;stroke-width:1.5;" width="136.5254" x="390.5088" y="582.9688"/><text fill="#000000" font-family="sans-serif" font-size="14" lengthAdjust="spacing" textLength="116.5254" x="400.5088" y="605.9639">Access Modifiers</text><path d="M340.5088,629.2656 L350.5088,629.2656 C365.5088,629.2656 365.5088,601.1172 380.5088,601.1172 L390.5088,601.1172" fill="none" style="stroke:#181818;stroke-width:1;"/><rect fill="#F1F1F1" height="36.2969" rx="12.5" ry="12.5" style="stroke:#181818;stroke-width:1.5;" width="86.1992" x="390.5088" y="639.2656"/><text fill="#000000" font-family="sans-serif" font-size="14" lengthAdjust="spacing" textLength="66.1992" x="400.5088" y="662.2607">Packages</text><path d="M340.5088,629.2656 L350.5088,629.2656 C365.5088,629.2656 365.5088,657.4141 380.5088,657.4141 L390.5088,657.4141" fill="none" style="stroke:#181818;stroke-width:1;"/><rect fill="#F1F1F1" height="36.2969" rx="12.5" ry="12.5" style="stroke:#181818;stroke-width:1.5;" width="113.4336" x="390.5088" y="695.5625"/><text fill="#000000" font-family="sans-serif" font-size="14" lengthAdjust="spacing" textLength="93.4336" x="400.5088" y="718.5576">Inner Classes</text><path d="M340.5088,629.2656 L350.5088,629.2656 C365.5088,629.2656 365.5088,713.7109 380.5088,713.7109 L390.5088,713.7109" fill="none" style="stroke:#181818;stroke-width:1;"/><rect fill="#F1F1F1" height="36.2969" rx="12.5" ry="12.5" style="stroke:#181818;stroke-width:1.5;" width="67.5234" x="390.5088" y="751.8594"/><text fill="#000000" font-family="sans-serif" font-size="14" lengthAdjust="spacing" textLength="47.5234" x="400.5088" y="774.8545">Enums</text><path d="M340.5088,629.2656 L350.5088,629.2656 C365.5088,629.2656 365.5088,770.0078 380.5088,770.0078 L390.5088,770.0078" fill="none" style="stroke:#181818;stroke-width:1;"/><path d="M129.2168,2064.8359 L139.2168,2064.8359 C154.2168,2064.8359 154.2168,629.2656 169.2168,629.2656 L179.2168,629.2656" fill="none" style="stroke:#181818;stroke-width:1;"/><rect fill="#F1F1F1" height="36.2969" rx="12.5" ry="12.5" style="stroke:#181818;stroke-width:1.5;" width="179.5098" x="179.2168" y="948.8984"/><text fill="#000000" font-family="sans-serif" font-size="14" lengthAdjust="spacing" textLength="159.5098" x="189.2168" y="971.8936">Collections Framework</text><rect fill="#F1F1F1" height="36.2969" rx="12.5" ry="12.5" style="stroke:#181818;stroke-width:1.5;" width="114.8076" x="408.7266" y="808.1563"/><text fill="#000000" font-family="sans-serif" font-size="14" lengthAdjust="spacing" textLength="94.8076" x="418.7266" y="831.1514">List, Set, Map</text><path d="M358.7266,967.0469 L368.7266,967.0469 C383.7266,967.0469 383.7266,826.3047 398.7266,826.3047 L408.7266,826.3047" fill="none" style="stroke:#181818;stroke-width:1;"/><rect fill="#F1F1F1" height="36.2969" rx="12.5" ry="12.5" style="stroke:#181818;stroke-width:1.5;" width="161.9688" x="408.7266" y="864.4531"/><text fill="#000000" font-family="sans-serif" font-size="14" lengthAdjust="spacing" textLength="141.9688" x="418.7266" y="887.4482">ArrayList, LinkedList</text><path d="M358.7266,967.0469 L368.7266,967.0469 C383.7266,967.0469 383.7266,882.6016 398.7266,882.6016 L408.7266,882.6016" fill="none" style="stroke:#181818;stroke-width:1;"/><rect fill="#F1F1F1" height="36.2969" rx="12.5" ry="12.5" style="stroke:#181818;stroke-width:1.5;" width="141.6865" x="408.7266" y="920.75"/><text fill="#000000" font-family="sans-serif" font-size="14" lengthAdjust="spacing" textLength="121.6865" x="418.7266" y="943.7451">HashSet, TreeSet</text><path d="M358.7266,967.0469 L368.7266,967.0469 C383.7266,967.0469 383.7266,938.8984 398.7266,938.8984 L408.7266,938.8984" fill="none" style="stroke:#181818;stroke-width:1;"/><rect fill="#F1F1F1" height="36.2969" rx="12.5" ry="12.5" style="stroke:#181818;stroke-width:1.5;" width="154.7979" x="408.7266" y="977.0469"/><text fill="#000000" font-family="sans-serif" font-size="14" lengthAdjust="spacing" textLength="134.7979" x="418.7266" y="1000.042">HashMap, TreeMap</text><path d="M358.7266,967.0469 L368.7266,967.0469 C383.7266,967.0469 383.7266,995.1953 398.7266,995.1953 L408.7266,995.1953" fill="none" style="stroke:#181818;stroke-width:1;"/><rect fill="#F1F1F1" height="36.2969" rx="12.5" ry="12.5" style="stroke:#181818;stroke-width:1.5;" width="208.5762" x="408.7266" y="1033.3438"/><text fill="#000000" font-family="sans-serif" font-size="14" lengthAdjust="spacing" textLength="188.5762" x="418.7266" y="1056.3389">Comparable &amp; Comparator</text><path d="M358.7266,967.0469 L368.7266,967.0469 C383.7266,967.0469 383.7266,1051.4922 398.7266,1051.4922 L408.7266,1051.4922" fill="none" style="stroke:#181818;stroke-width:1;"/><rect fill="#F1F1F1" height="36.2969" rx="12.5" ry="12.5" style="stroke:#181818;stroke-width:1.5;" width="79.6709" x="408.7266" y="1089.6406"/><text fill="#000000" font-family="sans-serif" font-size="14" lengthAdjust="spacing" textLength="59.6709" x="418.7266" y="1112.6357">Iterators</text><path d="M358.7266,967.0469 L368.7266,967.0469 C383.7266,967.0469 383.7266,1107.7891 398.7266,1107.7891 L408.7266,1107.7891" fill="none" style="stroke:#181818;stroke-width:1;"/><path d="M129.2168,2064.8359 L139.2168,2064.8359 C154.2168,2064.8359 154.2168,967.0469 169.2168,967.0469 L179.2168,967.0469" fill="none" style="stroke:#181818;stroke-width:1;"/><rect fill="#F1F1F1" height="36.2969" rx="12.5" ry="12.5" style="stroke:#181818;stroke-width:1.5;" width="156.001" x="179.2168" y="1202.2344"/><text fill="#000000" font-family="sans-serif" font-size="14" lengthAdjust="spacing" textLength="136.001" x="189.2168" y="1225.2295">Exception Handling</text><rect fill="#F1F1F1" height="36.2969" rx="12.5" ry="12.5" style="stroke:#181818;stroke-width:1.5;" width="138.5693" x="385.2178" y="1145.9375"/><text fill="#000000" font-family="sans-serif" font-size="14" lengthAdjust="spacing" textLength="118.5693" x="395.2178" y="1168.9326">Try-Catch-Finally</text><path d="M335.2178,1220.3828 L345.2178,1220.3828 C360.2178,1220.3828 360.2178,1164.0859 375.2178,1164.0859 L385.2178,1164.0859" fill="none" style="stroke:#181818;stroke-width:1;"/><rect fill="#F1F1F1" height="36.2969" rx="12.5" ry="12.5" style="stroke:#181818;stroke-width:1.5;" width="133.5039" x="385.2178" y="1202.2344"/><text fill="#000000" font-family="sans-serif" font-size="14" lengthAdjust="spacing" textLength="113.5039" x="395.2178" y="1225.2295">Throw &amp; Throws</text><path d="M335.2178,1220.3828 L345.2178,1220.3828 C360.2178,1220.3828 360.2178,1220.3828 375.2178,1220.3828 L385.2178,1220.3828" fill="none" style="stroke:#181818;stroke-width:1;"/><rect fill="#F1F1F1" height="36.2969" rx="12.5" ry="12.5" style="stroke:#181818;stroke-width:1.5;" width="154.5244" x="385.2178" y="1258.5313"/><text fill="#000000" font-family="sans-serif" font-size="14" lengthAdjust="spacing" textLength="134.5244" x="395.2178" y="1281.5264">Custom Exceptions</text><path d="M335.2178,1220.3828 L345.2178,1220.3828 C360.2178,1220.3828 360.2178,1276.6797 375.2178,1276.6797 L385.2178,1276.6797" fill="none" style="stroke:#181818;stroke-width:1;"/><path d="M129.2168,2064.8359 L139.2168,2064.8359 C154.2168,2064.8359 154.2168,1220.3828 169.2168,1220.3828 L179.2168,1220.3828" fill="none" style="stroke:#181818;stroke-width:1;"/><rect fill="#F1F1F1" height="36.2969" rx="12.5" ry="12.5" style="stroke:#181818;stroke-width:1.5;" width="140.3809" x="179.2168" y="1455.5703"/><text fill="#000000" font-family="sans-serif" font-size="14" lengthAdjust="spacing" textLength="120.3809" x="189.2168" y="1478.5654">Java 8+ Features</text><rect fill="#F1F1F1" height="36.2969" rx="12.5" ry="12.5" style="stroke:#181818;stroke-width:1.5;" width="164.416" x="369.5977" y="1314.8281"/><text fill="#000000" font-family="sans-serif" font-size="14" lengthAdjust="spacing" textLength="144.416" x="379.5977" y="1337.8232">Lambda Expressions</text><path d="M319.5977,1473.7188 L329.5977,1473.7188 C344.5977,1473.7188 344.5977,1332.9766 359.5977,1332.9766 L369.5977,1332.9766" fill="none" style="stroke:#181818;stroke-width:1;"/><rect fill="#F1F1F1" height="36.2969" rx="12.5" ry="12.5" style="stroke:#181818;stroke-width:1.5;" width="167.2051" x="369.5977" y="1371.125"/><text fill="#000000" font-family="sans-serif" font-size="14" lengthAdjust="spacing" textLength="147.2051" x="379.5977" y="1394.1201">Functional Interfaces</text><path d="M319.5977,1473.7188 L329.5977,1473.7188 C344.5977,1473.7188 344.5977,1389.2734 359.5977,1389.2734 L369.5977,1389.2734" fill="none" style="stroke:#181818;stroke-width:1;"/><rect fill="#F1F1F1" height="36.2969" rx="12.5" ry="12.5" style="stroke:#181818;stroke-width:1.5;" width="155.6865" x="369.5977" y="1427.4219"/><text fill="#000000" font-family="sans-serif" font-size="14" lengthAdjust="spacing" textLength="135.6865" x="379.5977" y="1450.417">Method References</text><path d="M319.5977,1473.7188 L329.5977,1473.7188 C344.5977,1473.7188 344.5977,1445.5703 359.5977,1445.5703 L369.5977,1445.5703" fill="none" style="stroke:#181818;stroke-width:1;"/><rect fill="#F1F1F1" height="36.2969" rx="12.5" ry="12.5" style="stroke:#181818;stroke-width:1.5;" width="104.8545" x="369.5977" y="1483.7188"/><text fill="#000000" font-family="sans-serif" font-size="14" lengthAdjust="spacing" textLength="84.8545" x="379.5977" y="1506.7139">Streams API</text><path d="M319.5977,1473.7188 L329.5977,1473.7188 C344.5977,1473.7188 344.5977,1501.8672 359.5977,1501.8672 L369.5977,1501.8672" fill="none" style="stroke:#181818;stroke-width:1;"/><rect fill="#F1F1F1" height="36.2969" rx="12.5" ry="12.5" style="stroke:#181818;stroke-width:1.5;" width="79.1924" x="369.5977" y="1540.0156"/><text fill="#000000" font-family="sans-serif" font-size="14" lengthAdjust="spacing" textLength="59.1924" x="379.5977" y="1563.0107">Optional</text><path d="M319.5977,1473.7188 L329.5977,1473.7188 C344.5977,1473.7188 344.5977,1558.1641 359.5977,1558.1641 L369.5977,1558.1641" fill="none" style="stroke:#181818;stroke-width:1;"/><rect fill="#F1F1F1" height="36.2969" rx="12.5" ry="12.5" style="stroke:#181818;stroke-width:1.5;" width="134.5703" x="369.5977" y="1596.3125"/><text fill="#000000" font-family="sans-serif" font-size="14" lengthAdjust="spacing" textLength="114.5703" x="379.5977" y="1619.3076">Date &amp; Time API</text><path d="M319.5977,1473.7188 L329.5977,1473.7188 C344.5977,1473.7188 344.5977,1614.4609 359.5977,1614.4609 L369.5977,1614.4609" fill="none" style="stroke:#181818;stroke-width:1;"/><path d="M129.2168,2064.8359 L139.2168,2064.8359 C154.2168,2064.8359 154.2168,1473.7188 169.2168,1473.7188 L179.2168,1473.7188" fill="none" style="stroke:#181818;stroke-width:1;"/><rect fill="#F1F1F1" height="36.2969" rx="12.5" ry="12.5" style="stroke:#181818;stroke-width:1.5;" width="230.6494" x="179.2168" y="1821.5"/><text fill="#000000" font-family="sans-serif" font-size="14" lengthAdjust="spacing" textLength="210.6494" x="189.2168" y="1844.4951">Multithreading &amp; Concurrency</text><rect fill="#F1F1F1" height="36.2969" rx="12.5" ry="12.5" style="stroke:#181818;stroke-width:1.5;" width="135.124" x="459.8662" y="1652.6094"/><text fill="#000000" font-family="sans-serif" font-size="14" lengthAdjust="spacing" textLength="115.124" x="469.8662" y="1675.6045">Thread Lifecycle</text><path d="M409.8662,1839.6484 L419.8662,1839.6484 C434.8662,1839.6484 434.8662,1670.7578 449.8662,1670.7578 L459.8662,1670.7578" fill="none" style="stroke:#181818;stroke-width:1;"/><rect fill="#F1F1F1" height="36.2969" rx="12.5" ry="12.5" style="stroke:#181818;stroke-width:1.5;" width="162.2354" x="459.8662" y="1708.9063"/><text fill="#000000" font-family="sans-serif" font-size="14" lengthAdjust="spacing" textLength="142.2354" x="469.8662" y="1731.9014">Runnable &amp; Callable</text><path d="M409.8662,1839.6484 L419.8662,1839.6484 C434.8662,1839.6484 434.8662,1727.0547 449.8662,1727.0547 L459.8662,1727.0547" fill="none" style="stroke:#181818;stroke-width:1;"/><rect fill="#F1F1F1" height="36.2969" rx="12.5" ry="12.5" style="stroke:#181818;stroke-width:1.5;" width="132.4443" x="459.8662" y="1765.2031"/><text fill="#000000" font-family="sans-serif" font-size="14" lengthAdjust="spacing" textLength="112.4443" x="469.8662" y="1788.1982">Synchronization</text><path d="M409.8662,1839.6484 L419.8662,1839.6484 C434.8662,1839.6484 434.8662,1783.3516 449.8662,1783.3516 L459.8662,1783.3516" fill="none" style="stroke:#181818;stroke-width:1;"/><rect fill="#F1F1F1" height="36.2969" rx="12.5" ry="12.5" style="stroke:#181818;stroke-width:1.5;" width="172.3867" x="459.8662" y="1821.5"/><text fill="#000000" font-family="sans-serif" font-size="14" lengthAdjust="spacing" textLength="152.3867" x="469.8662" y="1844.4951">Executors Framework</text><path d="M409.8662,1839.6484 L419.8662,1839.6484 C434.8662,1839.6484 434.8662,1839.6484 449.8662,1839.6484 L459.8662,1839.6484" fill="none" style="stroke:#181818;stroke-width:1;"/><rect fill="#F1F1F1" height="36.2969" rx="12.5" ry="12.5" style="stroke:#181818;stroke-width:1.5;" width="59.4639" x="459.8662" y="1877.7969"/><text fill="#000000" font-family="sans-serif" font-size="14" lengthAdjust="spacing" textLength="39.4639" x="469.8662" y="1900.792">Locks</text><path d="M409.8662,1839.6484 L419.8662,1839.6484 C434.8662,1839.6484 434.8662,1895.9453 449.8662,1895.9453 L459.8662,1895.9453" fill="none" style="stroke:#181818;stroke-width:1;"/><rect fill="#F1F1F1" height="36.2969" rx="12.5" ry="12.5" style="stroke:#181818;stroke-width:1.5;" width="179.2637" x="459.8662" y="1934.0938"/><text fill="#000000" font-family="sans-serif" font-size="14" lengthAdjust="spacing" textLength="159.2637" x="469.8662" y="1957.0889">Concurrent Collections</text><path d="M409.8662,1839.6484 L419.8662,1839.6484 C434.8662,1839.6484 434.8662,1952.2422 449.8662,1952.2422 L459.8662,1952.2422" fill="none" style="stroke:#181818;stroke-width:1;"/><rect fill="#F1F1F1" height="36.2969" rx="12.5" ry="12.5" style="stroke:#181818;stroke-width:1.5;" width="154.4834" x="459.8662" y="1990.3906"/><text fill="#000000" font-family="sans-serif" font-size="14" lengthAdjust="spacing" textLength="134.4834" x="469.8662" y="2013.3857">CompletableFuture</text><path d="M409.8662,1839.6484 L419.8662,1839.6484 C434.8662,1839.6484 434.8662,2008.5391 449.8662,2008.5391 L459.8662,2008.5391" fill="none" style="stroke:#181818;stroke-width:1;"/><path d="M129.2168,2064.8359 L139.2168,2064.8359 C154.2168,2064.8359 154.2168,1839.6484 169.2168,1839.6484 L179.2168,1839.6484" fill="none" style="stroke:#181818;stroke-width:1;"/><rect fill="#F1F1F1" height="36.2969" rx="12.5" ry="12.5" style="stroke:#181818;stroke-width:1.5;" width="173.6104" x="179.2168" y="2131.1328"/><text fill="#000000" font-family="sans-serif" font-size="14" lengthAdjust="spacing" textLength="153.6104" x="189.2168" y="2154.1279">Memory Management</text><rect fill="#F1F1F1" height="36.2969" rx="12.5" ry="12.5" style="stroke:#181818;stroke-width:1.5;" width="115.1836" x="402.8271" y="2046.6875"/><text fill="#000000" font-family="sans-serif" font-size="14" lengthAdjust="spacing" textLength="95.1836" x="412.8271" y="2069.6826">Heap &amp; Stack</text><path d="M352.8271,2149.2813 L362.8271,2149.2813 C377.8271,2149.2813 377.8271,2064.8359 392.8271,2064.8359 L402.8271,2064.8359" fill="none" style="stroke:#181818;stroke-width:1;"/><rect fill="#F1F1F1" height="36.2969" rx="12.5" ry="12.5" style="stroke:#181818;stroke-width:1.5;" width="153.8477" x="402.8271" y="2102.9844"/><text fill="#000000" font-family="sans-serif" font-size="14" lengthAdjust="spacing" textLength="133.8477" x="412.8271" y="2125.9795">Garbage Collection</text><path d="M352.8271,2149.2813 L362.8271,2149.2813 C377.8271,2149.2813 377.8271,2121.1328 392.8271,2121.1328 L402.8271,2121.1328" fill="none" style="stroke:#181818;stroke-width:1;"/><rect fill="#F1F1F1" height="36.2969" rx="12.5" ry="12.5" style="stroke:#181818;stroke-width:1.5;" width="121.7803" x="402.8271" y="2159.2813"/><text fill="#000000" font-family="sans-serif" font-size="14" lengthAdjust="spacing" textLength="101.7803" x="412.8271" y="2182.2764">Memory Leaks</text><path d="M352.8271,2149.2813 L362.8271,2149.2813 C377.8271,2149.2813 377.8271,2177.4297 392.8271,2177.4297 L402.8271,2177.4297" fill="none" style="stroke:#181818;stroke-width:1;"/><rect fill="#F1F1F1" height="36.2969" rx="12.5" ry="12.5" style="stroke:#181818;stroke-width:1.5;" width="98.1826" x="402.8271" y="2215.5781"/><text fill="#000000" font-family="sans-serif" font-size="14" lengthAdjust="spacing" textLength="78.1826" x="412.8271" y="2238.5732">JVM Tuning</text><path d="M352.8271,2149.2813 L362.8271,2149.2813 C377.8271,2149.2813 377.8271,2233.7266 392.8271,2233.7266 L402.8271,2233.7266" fill="none" style="stroke:#181818;stroke-width:1;"/><path d="M129.2168,2064.8359 L139.2168,2064.8359 C154.2168,2064.8359 154.2168,2149.2813 169.2168,2149.2813 L179.2168,2149.2813" fill="none" style="stroke:#181818;stroke-width:1;"/><rect fill="#F1F1F1" height="36.2969" rx="12.5" ry="12.5" style="stroke:#181818;stroke-width:1.5;" width="150.9834" x="179.2168" y="2356.3203"/><text fill="#000000" font-family="sans-serif" font-size="14" lengthAdjust="spacing" textLength="130.9834" x="189.2168" y="2379.3154">I/O &amp; File Handling</text><rect fill="#F1F1F1" height="36.2969" rx="12.5" ry="12.5" style="stroke:#181818;stroke-width:1.5;" width="107.1514" x="380.2002" y="2271.875"/><text fill="#000000" font-family="sans-serif" font-size="14" lengthAdjust="spacing" textLength="87.1514" x="390.2002" y="2294.8701">File Streams</text><path d="M330.2002,2374.4688 L340.2002,2374.4688 C355.2002,2374.4688 355.2002,2290.0234 370.2002,2290.0234 L380.2002,2290.0234" fill="none" style="stroke:#181818;stroke-width:1;"/><rect fill="#F1F1F1" height="36.2969" rx="12.5" ry="12.5" style="stroke:#181818;stroke-width:1.5;" width="187.3438" x="380.2002" y="2328.1719"/><text fill="#000000" font-family="sans-serif" font-size="14" lengthAdjust="spacing" textLength="167.3438" x="390.2002" y="2351.167">BufferedReader / Writer</text><path d="M330.2002,2374.4688 L340.2002,2374.4688 C355.2002,2374.4688 355.2002,2346.3203 370.2002,2346.3203 L380.2002,2346.3203" fill="none" style="stroke:#181818;stroke-width:1;"/><rect fill="#F1F1F1" height="36.2969" rx="12.5" ry="12.5" style="stroke:#181818;stroke-width:1.5;" width="45.6211" x="380.2002" y="2384.4688"/><text fill="#000000" font-family="sans-serif" font-size="14" lengthAdjust="spacing" textLength="25.6211" x="390.2002" y="2407.4639">NIO</text><path d="M330.2002,2374.4688 L340.2002,2374.4688 C355.2002,2374.4688 355.2002,2402.6172 370.2002,2402.6172 L380.2002,2402.6172" fill="none" style="stroke:#181818;stroke-width:1;"/><rect fill="#F1F1F1" height="36.2969" rx="12.5" ry="12.5" style="stroke:#181818;stroke-width:1.5;" width="230.1162" x="380.2002" y="2440.7656"/><text fill="#000000" font-family="sans-serif" font-size="14" lengthAdjust="spacing" textLength="210.1162" x="390.2002" y="2463.7607">Serialization &amp; Deserialization</text><path d="M330.2002,2374.4688 L340.2002,2374.4688 C355.2002,2374.4688 355.2002,2458.9141 370.2002,2458.9141 L380.2002,2458.9141" fill="none" style="stroke:#181818;stroke-width:1;"/><path d="M129.2168,2064.8359 L139.2168,2064.8359 C154.2168,2064.8359 154.2168,2374.4688 169.2168,2374.4688 L179.2168,2374.4688" fill="none" style="stroke:#181818;stroke-width:1;"/><rect fill="#F1F1F1" height="36.2969" rx="12.5" ry="12.5" style="stroke:#181818;stroke-width:1.5;" width="140.9072" x="179.2168" y="2581.5078"/><text fill="#000000" font-family="sans-serif" font-size="14" lengthAdjust="spacing" textLength="120.9072" x="189.2168" y="2604.5029">JDBC &amp; Database</text><rect fill="#F1F1F1" height="36.2969" rx="12.5" ry="12.5" style="stroke:#181818;stroke-width:1.5;" width="145.0635" x="370.124" y="2497.0625"/><text fill="#000000" font-family="sans-serif" font-size="14" lengthAdjust="spacing" textLength="125.0635" x="380.124" y="2520.0576">JDBC Architecture</text><path d="M320.124,2599.6563 L330.124,2599.6563 C345.124,2599.6563 345.124,2515.2109 360.124,2515.2109 L370.124,2515.2109" fill="none" style="stroke:#181818;stroke-width:1;"/><rect fill="#F1F1F1" height="36.2969" rx="12.5" ry="12.5" style="stroke:#181818;stroke-width:1.5;" width="327.8906" x="370.124" y="2553.3594"/><text fill="#000000" font-family="sans-serif" font-size="14" lengthAdjust="spacing" textLength="307.8906" x="380.124" y="2576.3545">Connection, Statement, PreparedStatement</text><path d="M320.124,2599.6563 L330.124,2599.6563 C345.124,2599.6563 345.124,2571.5078 360.124,2571.5078 L370.124,2571.5078" fill="none" style="stroke:#181818;stroke-width:1;"/><rect fill="#F1F1F1" height="36.2969" rx="12.5" ry="12.5" style="stroke:#181818;stroke-width:1.5;" width="109.4414" x="370.124" y="2609.6563"/><text fill="#000000" font-family="sans-serif" font-size="14" lengthAdjust="spacing" textLength="89.4414" x="380.124" y="2632.6514">Transactions</text><path d="M320.124,2599.6563 L330.124,2599.6563 C345.124,2599.6563 345.124,2627.8047 360.124,2627.8047 L370.124,2627.8047" fill="none" style="stroke:#181818;stroke-width:1;"/><rect fill="#F1F1F1" height="36.2969" rx="12.5" ry="12.5" style="stroke:#181818;stroke-width:1.5;" width="154.7773" x="370.124" y="2665.9531"/><text fill="#000000" font-family="sans-serif" font-size="14" lengthAdjust="spacing" textLength="134.7773" x="380.124" y="2688.9482">Connection Pooling</text><path d="M320.124,2599.6563 L330.124,2599.6563 C345.124,2599.6563 345.124,2684.1016 360.124,2684.1016 L370.124,2684.1016" fill="none" style="stroke:#181818;stroke-width:1;"/><path d="M129.2168,2064.8359 L139.2168,2064.8359 C154.2168,2064.8359 154.2168,2599.6563 169.2168,2599.6563 L179.2168,2599.6563" fill="none" style="stroke:#181818;stroke-width:1;"/><rect fill="#F1F1F1" height="36.2969" rx="12.5" ry="12.5" style="stroke:#181818;stroke-width:1.5;" width="100.1035" x="179.2168" y="2750.3984"/><text fill="#000000" font-family="sans-serif" font-size="14" lengthAdjust="spacing" textLength="80.1035" x="189.2168" y="2773.3936">Networking</text><rect fill="#F1F1F1" height="36.2969" rx="12.5" ry="12.5" style="stroke:#181818;stroke-width:1.5;" width="74.6533" x="329.3203" y="2722.25"/><text fill="#000000" font-family="sans-serif" font-size="14" lengthAdjust="spacing" textLength="54.6533" x="339.3203" y="2745.2451">Sockets</text><path d="M279.3203,2768.5469 L289.3203,2768.5469 C304.3203,2768.5469 304.3203,2740.3984 319.3203,2740.3984 L329.3203,2740.3984" fill="none" style="stroke:#181818;stroke-width:1;"/><rect fill="#F1F1F1" height="36.2969" rx="12.5" ry="12.5" style="stroke:#181818;stroke-width:1.5;" width="160.7109" x="329.3203" y="2778.5469"/><text fill="#000000" font-family="sans-serif" font-size="14" lengthAdjust="spacing" textLength="140.7109" x="339.3203" y="2801.542">HTTP &amp; REST Basics</text><path d="M279.3203,2768.5469 L289.3203,2768.5469 C304.3203,2768.5469 304.3203,2796.6953 319.3203,2796.6953 L329.3203,2796.6953" fill="none" style="stroke:#181818;stroke-width:1;"/><path d="M129.2168,2064.8359 L139.2168,2064.8359 C154.2168,2064.8359 154.2168,2768.5469 169.2168,2768.5469 L179.2168,2768.5469" fill="none" style="stroke:#181818;stroke-width:1;"/><rect fill="#F1F1F1" height="36.2969" rx="12.5" ry="12.5" style="stroke:#181818;stroke-width:1.5;" width="218.3721" x="179.2168" y="2891.1406"/><text fill="#000000" font-family="sans-serif" font-size="14" lengthAdjust="spacing" textLength="198.3721" x="189.2168" y="2914.1357">Design Principles &amp; Patterns</text><rect fill="#F1F1F1" height="36.2969" rx="12.5" ry="12.5" style="stroke:#181818;stroke-width:1.5;" width="134.2969" x="447.5889" y="2834.8438"/><text fill="#000000" font-family="sans-serif" font-size="14" lengthAdjust="spacing" textLength="114.2969" x="457.5889" y="2857.8389">SOLID Principles</text><path d="M397.5889,2909.2891 L407.5889,2909.2891 C422.5889,2909.2891 422.5889,2852.9922 437.5889,2852.9922 L447.5889,2852.9922" fill="none" style="stroke:#181818;stroke-width:1;"/><rect fill="#F1F1F1" height="36.2969" rx="12.5" ry="12.5" style="stroke:#181818;stroke-width:1.5;" width="474.4121" x="447.5889" y="2891.1406"/><text fill="#000000" font-family="sans-serif" font-size="14" lengthAdjust="spacing" textLength="454.4121" x="457.5889" y="2914.1357">Design Patterns (Singleton, Factory, Builder, Strategy, Observer)</text><path d="M397.5889,2909.2891 L407.5889,2909.2891 C422.5889,2909.2891 422.5889,2909.2891 437.5889,2909.2891 L447.5889,2909.2891" fill="none" style="stroke:#181818;stroke-width:1;"/><rect fill="#F1F1F1" height="36.2969" rx="12.5" ry="12.5" style="stroke:#181818;stroke-width:1.5;" width="164.5322" x="447.5889" y="2947.4375"/><text fill="#000000" font-family="sans-serif" font-size="14" lengthAdjust="spacing" textLength="144.5322" x="457.5889" y="2970.4326">DTO &amp; DAO Patterns</text><path d="M397.5889,2909.2891 L407.5889,2909.2891 C422.5889,2909.2891 422.5889,2965.5859 437.5889,2965.5859 L447.5889,2965.5859" fill="none" style="stroke:#181818;stroke-width:1;"/><path d="M129.2168,2064.8359 L139.2168,2064.8359 C154.2168,2064.8359 154.2168,2909.2891 169.2168,2909.2891 L179.2168,2909.2891" fill="none" style="stroke:#181818;stroke-width:1;"/><rect fill="#F1F1F1" height="36.2969" rx="12.5" ry="12.5" style="stroke:#181818;stroke-width:1.5;" width="216.5537" x="179.2168" y="3144.4766"/><text fill="#000000" font-family="sans-serif" font-size="14" lengthAdjust="spacing" textLength="196.5537" x="189.2168" y="3167.4717">Spring &amp; Enterprise Context</text><rect fill="#F1F1F1" height="36.2969" rx="12.5" ry="12.5" style="stroke:#181818;stroke-width:1.5;" width="172.5918" x="445.7705" y="3003.7344"/><text fill="#000000" font-family="sans-serif" font-size="14" lengthAdjust="spacing" textLength="152.5918" x="455.7705" y="3026.7295">Dependency Injection</text><path d="M395.7705,3162.625 L405.7705,3162.625 C420.7705,3162.625 420.7705,3021.8828 435.7705,3021.8828 L445.7705,3021.8828" fill="none" style="stroke:#181818;stroke-width:1;"/><rect fill="#F1F1F1" height="36.2969" rx="12.5" ry="12.5" style="stroke:#181818;stroke-width:1.5;" width="150.6621" x="445.7705" y="3060.0313"/><text fill="#000000" font-family="sans-serif" font-size="14" lengthAdjust="spacing" textLength="130.6621" x="455.7705" y="3083.0264">Spring Boot Basics</text><path d="M395.7705,3162.625 L405.7705,3162.625 C420.7705,3162.625 420.7705,3078.1797 435.7705,3078.1797 L445.7705,3078.1797" fill="none" style="stroke:#181818;stroke-width:1;"/><rect fill="#F1F1F1" height="36.2969" rx="12.5" ry="12.5" style="stroke:#181818;stroke-width:1.5;" width="136.9287" x="445.7705" y="3116.3281"/><text fill="#000000" font-family="sans-serif" font-size="14" lengthAdjust="spacing" textLength="116.9287" x="455.7705" y="3139.3232">REST Controllers</text><path d="M395.7705,3162.625 L405.7705,3162.625 C420.7705,3162.625 420.7705,3134.4766 435.7705,3134.4766 L445.7705,3134.4766" fill="none" style="stroke:#181818;stroke-width:1;"/><rect fill="#F1F1F1" height="36.2969" rx="12.5" ry="12.5" style="stroke:#181818;stroke-width:1.5;" width="124.9932" x="445.7705" y="3172.625"/><text fill="#000000" font-family="sans-serif" font-size="14" lengthAdjust="spacing" textLength="104.9932" x="455.7705" y="3195.6201">JPA / Hibernate</text><path d="M395.7705,3162.625 L405.7705,3162.625 C420.7705,3162.625 420.7705,3190.7734 435.7705,3190.7734 L445.7705,3190.7734" fill="none" style="stroke:#181818;stroke-width:1;"/><rect fill="#F1F1F1" height="36.2969" rx="12.5" ry="12.5" style="stroke:#181818;stroke-width:1.5;" width="156.001" x="445.7705" y="3228.9219"/><text fill="#000000" font-family="sans-serif" font-size="14" lengthAdjust="spacing" textLength="136.001" x="455.7705" y="3251.917">Exception Handling</text><path d="M395.7705,3162.625 L405.7705,3162.625 C420.7705,3162.625 420.7705,3247.0703 435.7705,3247.0703 L445.7705,3247.0703" fill="none" style="stroke:#181818;stroke-width:1;"/><rect fill="#F1F1F1" height="36.2969" rx="12.5" ry="12.5" style="stroke:#181818;stroke-width:1.5;" width="75.7881" x="445.7705" y="3285.2188"/><text fill="#000000" font-family="sans-serif" font-size="14" lengthAdjust="spacing" textLength="55.7881" x="455.7705" y="3308.2139">Logging</text><path d="M395.7705,3162.625 L405.7705,3162.625 C420.7705,3162.625 420.7705,3303.3672 435.7705,3303.3672 L445.7705,3303.3672" fill="none" style="stroke:#181818;stroke-width:1;"/><path d="M129.2168,2064.8359 L139.2168,2064.8359 C154.2168,2064.8359 154.2168,3162.625 169.2168,3162.625 L179.2168,3162.625" fill="none" style="stroke:#181818;stroke-width:1;"/><rect fill="#F1F1F1" height="36.2969" rx="12.5" ry="12.5" style="stroke:#181818;stroke-width:1.5;" width="96.46" x="179.2168" y="3228.9219"/><text fill="#000000" font-family="sans-serif" font-size="14" lengthAdjust="spacing" textLength="76.46" x="189.2168" y="3251.917">Build Tools</text><rect fill="#F1F1F1" height="36.2969" rx="12.5" ry="12.5" style="stroke:#181818;stroke-width:1.5;" width="66.4297" x="325.6768" y="3200.7734"/><text fill="#000000" font-family="sans-serif" font-size="14" lengthAdjust="spacing" textLength="46.4297" x="335.6768" y="3223.7686">Maven</text><path d="M275.6768,3247.0703 L285.6768,3247.0703 C300.6768,3247.0703 300.6768,3218.9219 315.6768,3218.9219 L325.6768,3218.9219" fill="none" style="stroke:#181818;stroke-width:1;"/><rect fill="#F1F1F1" height="36.2969" rx="12.5" ry="12.5" style="stroke:#181818;stroke-width:1.5;" width="66.5732" x="325.6768" y="3257.0703"/><text fill="#000000" font-family="sans-serif" font-size="14" lengthAdjust="spacing" textLength="46.5732" x="335.6768" y="3280.0654">Gradle</text><path d="M275.6768,3247.0703 L285.6768,3247.0703 C300.6768,3247.0703 300.6768,3275.2188 315.6768,3275.2188 L325.6768,3275.2188" fill="none" style="stroke:#181818;stroke-width:1;"/><path d="M129.2168,2064.8359 L139.2168,2064.8359 C154.2168,2064.8359 154.2168,3247.0703 169.2168,3247.0703 L179.2168,3247.0703" fill="none" style="stroke:#181818;stroke-width:1;"/><rect fill="#F1F1F1" height="36.2969" rx="12.5" ry="12.5" style="stroke:#181818;stroke-width:1.5;" width="71.5977" x="179.2168" y="3397.8125"/><text fill="#000000" font-family="sans-serif" font-size="14" lengthAdjust="spacing" textLength="51.5977" x="189.2168" y="3420.8076">Testing</text><rect fill="#F1F1F1" height="36.2969" rx="12.5" ry="12.5" style="stroke:#181818;stroke-width:1.5;" width="52.6279" x="300.8145" y="3341.5156"/><text fill="#000000" font-family="sans-serif" font-size="14" lengthAdjust="spacing" textLength="32.6279" x="310.8145" y="3364.5107">JUnit</text><path d="M250.8145,3415.9609 L260.8145,3415.9609 C275.8145,3415.9609 275.8145,3359.6641 290.8145,3359.6641 L300.8145,3359.6641" fill="none" style="stroke:#181818;stroke-width:1;"/><rect fill="#F1F1F1" height="36.2969" rx="12.5" ry="12.5" style="stroke:#181818;stroke-width:1.5;" width="74.3936" x="300.8145" y="3397.8125"/><text fill="#000000" font-family="sans-serif" font-size="14" lengthAdjust="spacing" textLength="54.3936" x="310.8145" y="3420.8076">Mockito</text><path d="M250.8145,3415.9609 L260.8145,3415.9609 C275.8145,3415.9609 275.8145,3415.9609 290.8145,3415.9609 L300.8145,3415.9609" fill="none" style="stroke:#181818;stroke-width:1;"/><rect fill="#F1F1F1" height="36.2969" rx="12.5" ry="12.5" style="stroke:#181818;stroke-width:1.5;" width="153.1914" x="300.8145" y="3454.1094"/><text fill="#000000" font-family="sans-serif" font-size="14" lengthAdjust="spacing" textLength="133.1914" x="310.8145" y="3477.1045">Integration Testing</text><path d="M250.8145,3415.9609 L260.8145,3415.9609 C275.8145,3415.9609 275.8145,3472.2578 290.8145,3472.2578 L300.8145,3472.2578" fill="none" style="stroke:#181818;stroke-width:1;"/><path d="M129.2168,2064.8359 L139.2168,2064.8359 C154.2168,2064.8359 154.2168,3415.9609 169.2168,3415.9609 L179.2168,3415.9609" fill="none" style="stroke:#181818;stroke-width:1;"/><rect fill="#F1F1F1" height="36.2969" rx="12.5" ry="12.5" style="stroke:#181818;stroke-width:1.5;" width="77.4902" x="179.2168" y="3566.7031"/><text fill="#000000" font-family="sans-serif" font-size="14" lengthAdjust="spacing" textLength="57.4902" x="189.2168" y="3589.6982">Security</text><rect fill="#F1F1F1" height="36.2969" rx="12.5" ry="12.5" style="stroke:#181818;stroke-width:1.5;" width="236.3574" x="306.707" y="3510.4063"/><text fill="#000000" font-family="sans-serif" font-size="14" lengthAdjust="spacing" textLength="216.3574" x="316.707" y="3533.4014">Authentication &amp; Authorization</text><path d="M256.707,3584.8516 L266.707,3584.8516 C281.707,3584.8516 281.707,3528.5547 296.707,3528.5547 L306.707,3528.5547" fill="none" style="stroke:#181818;stroke-width:1;"/><rect fill="#F1F1F1" height="36.2969" rx="12.5" ry="12.5" style="stroke:#181818;stroke-width:1.5;" width="46.5234" x="306.707" y="3566.7031"/><text fill="#000000" font-family="sans-serif" font-size="14" lengthAdjust="spacing" textLength="26.5234" x="316.707" y="3589.6982">JWT</text><path d="M256.707,3584.8516 L266.707,3584.8516 C281.707,3584.8516 281.707,3584.8516 296.707,3584.8516 L306.707,3584.8516" fill="none" style="stroke:#181818;stroke-width:1;"/><rect fill="#F1F1F1" height="36.2969" rx="12.5" ry="12.5" style="stroke:#181818;stroke-width:1.5;" width="120.5771" x="306.707" y="3623"/><text fill="#000000" font-family="sans-serif" font-size="14" lengthAdjust="spacing" textLength="100.5771" x="316.707" y="3645.9951">OWASP Basics</text><path d="M256.707,3584.8516 L266.707,3584.8516 C281.707,3584.8516 281.707,3641.1484 296.707,3641.1484 L306.707,3641.1484" fill="none" style="stroke:#181818;stroke-width:1;"/><path d="M129.2168,2064.8359 L139.2168,2064.8359 C154.2168,2064.8359 154.2168,3584.8516 169.2168,3584.8516 L179.2168,3584.8516" fill="none" style="stroke:#181818;stroke-width:1;"/><rect fill="#F1F1F1" height="36.2969" rx="12.5" ry="12.5" style="stroke:#181818;stroke-width:1.5;" width="218.8369" x="179.2168" y="3735.5938"/><text fill="#000000" font-family="sans-serif" font-size="14" lengthAdjust="spacing" textLength="198.8369" x="189.2168" y="3758.5889">Performance &amp; Optimization</text><rect fill="#F1F1F1" height="36.2969" rx="12.5" ry="12.5" style="stroke:#181818;stroke-width:1.5;" width="77.1211" x="448.0537" y="3679.2969"/><text fill="#000000" font-family="sans-serif" font-size="14" lengthAdjust="spacing" textLength="57.1211" x="458.0537" y="3702.292">Profiling</text><path d="M398.0537,3753.7422 L408.0537,3753.7422 C423.0537,3753.7422 423.0537,3697.4453 438.0537,3697.4453 L448.0537,3697.4453" fill="none" style="stroke:#181818;stroke-width:1;"/><rect fill="#F1F1F1" height="36.2969" rx="12.5" ry="12.5" style="stroke:#181818;stroke-width:1.5;" width="76.5742" x="448.0537" y="3735.5938"/><text fill="#000000" font-family="sans-serif" font-size="14" lengthAdjust="spacing" textLength="56.5742" x="458.0537" y="3758.5889">Caching</text><path d="M398.0537,3753.7422 L408.0537,3753.7422 C423.0537,3753.7422 423.0537,3753.7422 438.0537,3753.7422 L448.0537,3753.7422" fill="none" style="stroke:#181818;stroke-width:1;"/><rect fill="#F1F1F1" height="36.2969" rx="12.5" ry="12.5" style="stroke:#181818;stroke-width:1.5;" width="155.5703" x="448.0537" y="3791.8906"/><text fill="#000000" font-family="sans-serif" font-size="14" lengthAdjust="spacing" textLength="135.5703" x="458.0537" y="3814.8857">Thread Pool Tuning</text><path d="M398.0537,3753.7422 L408.0537,3753.7422 C423.0537,3753.7422 423.0537,3810.0391 438.0537,3810.0391 L448.0537,3810.0391" fill="none" style="stroke:#181818;stroke-width:1;"/><path d="M129.2168,2064.8359 L139.2168,2064.8359 C154.2168,2064.8359 154.2168,3753.7422 169.2168,3753.7422 L179.2168,3753.7422" fill="none" style="stroke:#181818;stroke-width:1;"/><rect fill="#F1F1F1" height="36.2969" rx="12.5" ry="12.5" style="stroke:#181818;stroke-width:1.5;" width="138.7334" x="179.2168" y="3960.7813"/><text fill="#000000" font-family="sans-serif" font-size="14" lengthAdjust="spacing" textLength="118.7334" x="189.2168" y="3983.7764">Advanced Topics</text><rect fill="#F1F1F1" height="36.2969" rx="12.5" ry="12.5" style="stroke:#181818;stroke-width:1.5;" width="116.8857" x="367.9502" y="3848.1875"/><text fill="#000000" font-family="sans-serif" font-size="14" lengthAdjust="spacing" textLength="96.8857" x="377.9502" y="3871.1826">Reflection API</text><path d="M317.9502,3978.9297 L327.9502,3978.9297 C342.9502,3978.9297 342.9502,3866.3359 357.9502,3866.3359 L367.9502,3866.3359" fill="none" style="stroke:#181818;stroke-width:1;"/><rect fill="#F1F1F1" height="36.2969" rx="12.5" ry="12.5" style="stroke:#181818;stroke-width:1.5;" width="104.0684" x="367.9502" y="3904.4844"/><text fill="#000000" font-family="sans-serif" font-size="14" lengthAdjust="spacing" textLength="84.0684" x="377.9502" y="3927.4795">Annotations</text><path d="M317.9502,3978.9297 L327.9502,3978.9297 C342.9502,3978.9297 342.9502,3922.6328 357.9502,3922.6328 L367.9502,3922.6328" fill="none" style="stroke:#181818;stroke-width:1;"/><rect fill="#F1F1F1" height="36.2969" rx="12.5" ry="12.5" style="stroke:#181818;stroke-width:1.5;" width="81.585" x="367.9502" y="3960.7813"/><text fill="#000000" font-family="sans-serif" font-size="14" lengthAdjust="spacing" textLength="61.585" x="377.9502" y="3983.7764">Generics</text><path d="M317.9502,3978.9297 L327.9502,3978.9297 C342.9502,3978.9297 342.9502,3978.9297 357.9502,3978.9297 L367.9502,3978.9297" fill="none" style="stroke:#181818;stroke-width:1;"/><rect fill="#F1F1F1" height="36.2969" rx="12.5" ry="12.5" style="stroke:#181818;stroke-width:1.5;" width="164.2383" x="367.9502" y="4017.0781"/><text fill="#000000" font-family="sans-serif" font-size="14" lengthAdjust="spacing" textLength="144.2383" x="377.9502" y="4040.0732">Microservices Basics</text><path d="M317.9502,3978.9297 L327.9502,3978.9297 C342.9502,3978.9297 342.9502,4035.2266 357.9502,4035.2266 L367.9502,4035.2266" fill="none" style="stroke:#181818;stroke-width:1;"/><rect fill="#F1F1F1" height="36.2969" rx="12.5" ry="12.5" style="stroke:#181818;stroke-width:1.5;" width="174.9707" x="367.9502" y="4073.375"/><text fill="#000000" font-family="sans-serif" font-size="14" lengthAdjust="spacing" textLength="154.9707" x="377.9502" y="4096.3701">Docker &amp; Deployment</text><path d="M317.9502,3978.9297 L327.9502,3978.9297 C342.9502,3978.9297 342.9502,4091.5234 357.9502,4091.5234 L367.9502,4091.5234" fill="none" style="stroke:#181818;stroke-width:1;"/><path d="M129.2168,2064.8359 L139.2168,2064.8359 C154.2168,2064.8359 154.2168,3978.9297 169.2168,3978.9297 L179.2168,3978.9297" fill="none" style="stroke:#181818;stroke-width:1;"/><?plantuml-src RLLBSzis4BxhL-2KILmdQTsPJe-HBScMAeKSYOtFAt8b8GO13W0wPdvzT_6WwRONYLZi-_jsySLviBwLkccXcrs93Jo3k3EwniwxsUpgYWuMnIquMJiw9esvhI_IO-rxYr7wRNSjDlib_Ip-2f85U13LqA4JxyGti1AE2gEBeaCBtjXuecZU6YKE7Zosg7qIAt0k61V7xnGfIdVeBwPXAPavR_jwz5CKfIYjrBNiA91ulzGrTAvNuANHrs9-97Meus6jBsYb1whpMfH63QsntKMwzaEecTCMXy5HFXo_A4E0jVPeJr27fBAxdESaEr4yerK66gdFR4udA_aGTEOrEN1YPnfvafXoBw5-WdFoijOQxHk_Izst6GsbC1JXnCf2Yp-CVGewM-dyjJWW_UmOIWvbBGnHlfNw2Hl-3ZSFu2v1jRA8z34AoJGAiuyxqtPW6RlGyt2WbiT4VSQHKrk-C6aeCtAa6vNhhUpmyGvyVVcuaXgK6gBqOiqFyXZ-4-2zywPzTHEz1hhz-OjO8J3PekeMscC3fDgHn0LT5gzw7Le3QeBL59Wzdj2YpjA3jmYj4_DodNWPhJD_kUHAjXWKE9bThxpq5x9AsFAaz9PTZcNH7NNxXFLGgpWR-rxht41g07_6y8EkgNmjVmQAHgHViEwvfVz6rzHFuxZ4a7vAXX4hXPu3hFemcY5f978FH0fD3EFvYc0ZT9GG3LqT8zo3FPB2n6dgNB3U8gJuDEcYwZN3ozxNdmjoiv9KtXlOWoGrE0Xk-nCtlzbJWuZUdyKZ3I168drT5x4ZD9IWKZ_8xGBTL189iRYzuojQBqTmQVkmx3yxYJgbCGtyk5net2qIYR4PHOcce1syQMQsfWLXLAxtAte69PTv85mmxQQ7gYefi_toKEM5oHPKX3phwMfwH_FkgVOKwL1irul9VQHViagAuls1GXAuNCmAUEiDrzHJgQYPN1uD8fv9L1ofPRHnFaGl5QEpc1Ul4JcbGsSZVvSy9dHm6DOmllWKl4FTCAjfaBvFs90CRutnqpSXb9pskCexRLFE2UK7UQImb5oYz__kYAqvdtE3GqsYefQdqOLdZC7lBJGgShf2vxFnvcyjOzex0aDwCoxhiur4ojgXT9el8buSrtdlBqG0MMV2iS3OwK1k7gku6nxdXt8AQqdxnTYMdn1UybHLExKhhJd9iS0x86xcXHXt19DgEaZpvfbzSUdTs5SyfLaSTzHSQ-FXbQRtI8z5rj_9sXh6N_8ZDG5emJIrOQ8wPOR0-jaNmZY__BFVFjtyUlF7fviZxO_V_m40?></g></svg>