<?plantuml 1.2026.2beta3?><svg xmlns="http://www.w3.org/2000/svg" xmlns:xlink="http://www.w3.org/1999/xlink" contentStyleType="text/css" data-diagram-type="MINDMAP" height="3681px" preserveAspectRatio="none" style="width:908px;height:3681px;background:#FFFFFF;" version="1.1" viewBox="0 0 908 3681" width="908px" zoomAndPan="magnify"><defs/><g><rect fill="#F1F1F1" height="36.2969" rx="12.5" ry="12.5" style="stroke:#181818;stroke-width:1.5;" width="171.498" x="10" y="1821.5"/><text fill="#000000" font-family="sans-serif" font-size="14" lengthAdjust="spacing" textLength="151.498" x="20" y="1844.4951">Spring Boot Concepts</text><rect fill="#F1F1F1" height="36.2969" rx="12.5" ry="12.5" style="stroke:#181818;stroke-width:1.5;" width="101.5186" x="231.498" y="160.7422"/><text fill="#000000" font-family="sans-serif" font-size="14" lengthAdjust="spacing" textLength="81.5186" x="241.498" y="183.7373">Core Basics</text><rect fill="#F1F1F1" height="36.2969" rx="12.5" ry="12.5" style="stroke:#181818;stroke-width:1.5;" width="218.5088" x="383.0166" y="20"/><text fill="#000000" font-family="sans-serif" font-size="14" lengthAdjust="spacing" textLength="198.5088" x="393.0166" y="42.9951">Spring Framework Overview</text><path d="M333.0166,178.8906 L343.0166,178.8906 C358.0166,178.8906 358.0166,38.1484 373.0166,38.1484 L383.0166,38.1484" fill="none" style="stroke:#181818;stroke-width:1;"/><rect fill="#F1F1F1" height="36.2969" rx="12.5" ry="12.5" style="stroke:#181818;stroke-width:1.5;" width="192.6279" x="383.0166" y="76.2969"/><text fill="#000000" font-family="sans-serif" font-size="14" lengthAdjust="spacing" textLength="172.6279" x="393.0166" y="99.292">Spring Boot Architecture</text><path d="M333.0166,178.8906 L343.0166,178.8906 C358.0166,178.8906 358.0166,94.4453 373.0166,94.4453 L383.0166,94.4453" fill="none" style="stroke:#181818;stroke-width:1;"/><rect fill="#F1F1F1" height="36.2969" rx="12.5" ry="12.5" style="stroke:#181818;stroke-width:1.5;" width="162.167" x="383.0166" y="132.5938"/><text fill="#000000" font-family="sans-serif" font-size="14" lengthAdjust="spacing" textLength="142.167" x="393.0166" y="155.5889">Spring Boot Starters</text><path d="M333.0166,178.8906 L343.0166,178.8906 C358.0166,178.8906 358.0166,150.7422 373.0166,150.7422 L383.0166,150.7422" fill="none" style="stroke:#181818;stroke-width:1;"/><rect fill="#F1F1F1" height="36.2969" rx="12.5" ry="12.5" style="stroke:#181818;stroke-width:1.5;" width="151.8994" x="383.0166" y="188.8906"/><text fill="#000000" font-family="sans-serif" font-size="14" lengthAdjust="spacing" textLength="131.8994" x="393.0166" y="211.8857">Auto Configuration</text><path d="M333.0166,178.8906 L343.0166,178.8906 C358.0166,178.8906 358.0166,207.0391 373.0166,207.0391 L383.0166,207.0391" fill="none" style="stroke:#181818;stroke-width:1;"/><rect fill="#F1F1F1" height="36.2969" rx="12.5" ry="12.5" style="stroke:#181818;stroke-width:1.5;" width="225.6045" x="383.0166" y="245.1875"/><text fill="#000000" font-family="sans-serif" font-size="14" lengthAdjust="spacing" textLength="205.6045" x="393.0166" y="268.1826">Application Properties / YAML</text><path d="M333.0166,178.8906 L343.0166,178.8906 C358.0166,178.8906 358.0166,263.3359 373.0166,263.3359 L383.0166,263.3359" fill="none" style="stroke:#181818;stroke-width:1;"/><rect fill="#F1F1F1" height="36.2969" rx="12.5" ry="12.5" style="stroke:#181818;stroke-width:1.5;" width="128.0078" x="383.0166" y="301.4844"/><text fill="#000000" font-family="sans-serif" font-size="14" lengthAdjust="spacing" textLength="108.0078" x="393.0166" y="324.4795">Spring Boot CLI</text><path d="M333.0166,178.8906 L343.0166,178.8906 C358.0166,178.8906 358.0166,319.6328 373.0166,319.6328 L383.0166,319.6328" fill="none" style="stroke:#181818;stroke-width:1;"/><path d="M181.498,1839.6484 L191.498,1839.6484 C206.498,1839.6484 206.498,178.8906 221.498,178.8906 L231.498,178.8906" fill="none" style="stroke:#181818;stroke-width:1;"/><rect fill="#F1F1F1" height="36.2969" rx="12.5" ry="12.5" style="stroke:#181818;stroke-width:1.5;" width="235.373" x="231.498" y="498.5234"/><text fill="#000000" font-family="sans-serif" font-size="14" lengthAdjust="spacing" textLength="215.373" x="241.498" y="521.5186">Dependency Injection &amp; Beans</text><rect fill="#F1F1F1" height="36.2969" rx="12.5" ry="12.5" style="stroke:#181818;stroke-width:1.5;" width="195.4307" x="516.8711" y="357.7813"/><text fill="#000000" font-family="sans-serif" font-size="14" lengthAdjust="spacing" textLength="175.4307" x="526.8711" y="380.7764">Inversion of Control (IoC)</text><path d="M466.8711,516.6719 L476.8711,516.6719 C491.8711,516.6719 491.8711,375.9297 506.8711,375.9297 L516.8711,375.9297" fill="none" style="stroke:#181818;stroke-width:1;"/><rect fill="#F1F1F1" height="36.2969" rx="12.5" ry="12.5" style="stroke:#181818;stroke-width:1.5;" width="202.875" x="516.8711" y="414.0781"/><text fill="#000000" font-family="sans-serif" font-size="14" lengthAdjust="spacing" textLength="182.875" x="526.8711" y="437.0732">Dependency Injection (DI)</text><path d="M466.8711,516.6719 L476.8711,516.6719 C491.8711,516.6719 491.8711,432.2266 506.8711,432.2266 L516.8711,432.2266" fill="none" style="stroke:#181818;stroke-width:1;"/><rect fill="#F1F1F1" height="36.2969" rx="12.5" ry="12.5" style="stroke:#181818;stroke-width:1.5;" width="379.9668" x="516.8711" y="470.375"/><text fill="#000000" font-family="sans-serif" font-size="14" lengthAdjust="spacing" textLength="359.9668" x="526.8711" y="493.3701">@Component, @Service, @Repository, @Controller</text><path d="M466.8711,516.6719 L476.8711,516.6719 C491.8711,516.6719 491.8711,488.5234 506.8711,488.5234 L516.8711,488.5234" fill="none" style="stroke:#181818;stroke-width:1;"/><rect fill="#F1F1F1" height="36.2969" rx="12.5" ry="12.5" style="stroke:#181818;stroke-width:1.5;" width="105.1006" x="516.8711" y="526.6719"/><text fill="#000000" font-family="sans-serif" font-size="14" lengthAdjust="spacing" textLength="85.1006" x="526.8711" y="549.667">@Autowired</text><path d="M466.8711,516.6719 L476.8711,516.6719 C491.8711,516.6719 491.8711,544.8203 506.8711,544.8203 L516.8711,544.8203" fill="none" style="stroke:#181818;stroke-width:1;"/><rect fill="#F1F1F1" height="36.2969" rx="12.5" ry="12.5" style="stroke:#181818;stroke-width:1.5;" width="121.5342" x="516.8711" y="582.9688"/><text fill="#000000" font-family="sans-serif" font-size="14" lengthAdjust="spacing" textLength="101.5342" x="526.8711" y="605.9639">Bean Lifecycle</text><path d="M466.8711,516.6719 L476.8711,516.6719 C491.8711,516.6719 491.8711,601.1172 506.8711,601.1172 L516.8711,601.1172" fill="none" style="stroke:#181818;stroke-width:1;"/><rect fill="#F1F1F1" height="36.2969" rx="12.5" ry="12.5" style="stroke:#181818;stroke-width:1.5;" width="110.0635" x="516.8711" y="639.2656"/><text fill="#000000" font-family="sans-serif" font-size="14" lengthAdjust="spacing" textLength="90.0635" x="526.8711" y="662.2607">Bean Scopes</text><path d="M466.8711,516.6719 L476.8711,516.6719 C491.8711,516.6719 491.8711,657.4141 506.8711,657.4141 L516.8711,657.4141" fill="none" style="stroke:#181818;stroke-width:1;"/><path d="M181.498,1839.6484 L191.498,1839.6484 C206.498,1839.6484 206.498,516.6719 221.498,516.6719 L231.498,516.6719" fill="none" style="stroke:#181818;stroke-width:1;"/><rect fill="#F1F1F1" height="36.2969" rx="12.5" ry="12.5" style="stroke:#181818;stroke-width:1.5;" width="181.3076" x="231.498" y="808.1563"/><text fill="#000000" font-family="sans-serif" font-size="14" lengthAdjust="spacing" textLength="161.3076" x="241.498" y="831.1514">REST API Development</text><rect fill="#F1F1F1" height="36.2969" rx="12.5" ry="12.5" style="stroke:#181818;stroke-width:1.5;" width="134.2969" x="462.8057" y="695.5625"/><text fill="#000000" font-family="sans-serif" font-size="14" lengthAdjust="spacing" textLength="114.2969" x="472.8057" y="718.5576">@RestController</text><path d="M412.8057,826.3047 L422.8057,826.3047 C437.8057,826.3047 437.8057,713.7109 452.8057,713.7109 L462.8057,713.7109" fill="none" style="stroke:#181818;stroke-width:1;"/><rect fill="#F1F1F1" height="36.2969" rx="12.5" ry="12.5" style="stroke:#181818;stroke-width:1.5;" width="407.4336" x="462.8057" y="751.8594"/><text fill="#000000" font-family="sans-serif" font-size="14" lengthAdjust="spacing" textLength="387.4336" x="472.8057" y="774.8545">@RequestMapping, @GetMapping, @PostMapping, etc.</text><path d="M412.8057,826.3047 L422.8057,826.3047 C437.8057,826.3047 437.8057,770.0078 452.8057,770.0078 L462.8057,770.0078" fill="none" style="stroke:#181818;stroke-width:1;"/><rect fill="#F1F1F1" height="36.2969" rx="12.5" ry="12.5" style="stroke:#181818;stroke-width:1.5;" width="254.9512" x="462.8057" y="808.1563"/><text fill="#000000" font-family="sans-serif" font-size="14" lengthAdjust="spacing" textLength="234.9512" x="472.8057" y="831.1514">Path Variables &amp; Request Params</text><path d="M412.8057,826.3047 L422.8057,826.3047 C437.8057,826.3047 437.8057,826.3047 452.8057,826.3047 L462.8057,826.3047" fill="none" style="stroke:#181818;stroke-width:1;"/><rect fill="#F1F1F1" height="36.2969" rx="12.5" ry="12.5" style="stroke:#181818;stroke-width:1.5;" width="250.2959" x="462.8057" y="864.4531"/><text fill="#000000" font-family="sans-serif" font-size="14" lengthAdjust="spacing" textLength="230.2959" x="472.8057" y="887.4482">Request Body &amp; Response Entity</text><path d="M412.8057,826.3047 L422.8057,826.3047 C437.8057,826.3047 437.8057,882.6016 452.8057,882.6016 L462.8057,882.6016" fill="none" style="stroke:#181818;stroke-width:1;"/><rect fill="#F1F1F1" height="36.2969" rx="12.5" ry="12.5" style="stroke:#181818;stroke-width:1.5;" width="301.4971" x="462.8057" y="920.75"/><text fill="#000000" font-family="sans-serif" font-size="14" lengthAdjust="spacing" textLength="281.4971" x="472.8057" y="943.7451">Exception Handling (@ControllerAdvice)</text><path d="M412.8057,826.3047 L422.8057,826.3047 C437.8057,826.3047 437.8057,938.8984 452.8057,938.8984 L462.8057,938.8984" fill="none" style="stroke:#181818;stroke-width:1;"/><path d="M181.498,1839.6484 L191.498,1839.6484 C206.498,1839.6484 206.498,826.3047 221.498,826.3047 L231.498,826.3047" fill="none" style="stroke:#181818;stroke-width:1;"/><rect fill="#F1F1F1" height="36.2969" rx="12.5" ry="12.5" style="stroke:#181818;stroke-width:1.5;" width="101.0605" x="231.498" y="1033.3438"/><text fill="#000000" font-family="sans-serif" font-size="14" lengthAdjust="spacing" textLength="81.0605" x="241.498" y="1056.3389">Spring MVC</text><rect fill="#F1F1F1" height="36.2969" rx="12.5" ry="12.5" style="stroke:#181818;stroke-width:1.5;" width="145.3916" x="382.5586" y="977.0469"/><text fill="#000000" font-family="sans-serif" font-size="14" lengthAdjust="spacing" textLength="125.3916" x="392.5586" y="1000.042">DispatcherServlet</text><path d="M332.5586,1051.4922 L342.5586,1051.4922 C357.5586,1051.4922 357.5586,995.1953 372.5586,995.1953 L382.5586,995.1953" fill="none" style="stroke:#181818;stroke-width:1;"/><rect fill="#F1F1F1" height="36.2969" rx="12.5" ry="12.5" style="stroke:#181818;stroke-width:1.5;" width="118.7246" x="382.5586" y="1033.3438"/><text fill="#000000" font-family="sans-serif" font-size="14" lengthAdjust="spacing" textLength="98.7246" x="392.5586" y="1056.3389">View Resolver</text><path d="M332.5586,1051.4922 L342.5586,1051.4922 C357.5586,1051.4922 357.5586,1051.4922 372.5586,1051.4922 L382.5586,1051.4922" fill="none" style="stroke:#181818;stroke-width:1;"/><rect fill="#F1F1F1" height="36.2969" rx="12.5" ry="12.5" style="stroke:#181818;stroke-width:1.5;" width="173.8359" x="382.5586" y="1089.6406"/><text fill="#000000" font-family="sans-serif" font-size="14" lengthAdjust="spacing" textLength="153.8359" x="392.5586" y="1112.6357">Model, ModelAndView</text><path d="M332.5586,1051.4922 L342.5586,1051.4922 C357.5586,1051.4922 357.5586,1107.7891 372.5586,1107.7891 L382.5586,1107.7891" fill="none" style="stroke:#181818;stroke-width:1;"/><path d="M181.498,1839.6484 L191.498,1839.6484 C206.498,1839.6484 206.498,1051.4922 221.498,1051.4922 L231.498,1051.4922" fill="none" style="stroke:#181818;stroke-width:1;"/><rect fill="#F1F1F1" height="36.2969" rx="12.5" ry="12.5" style="stroke:#181818;stroke-width:1.5;" width="106.0508" x="231.498" y="1286.6797"/><text fill="#000000" font-family="sans-serif" font-size="14" lengthAdjust="spacing" textLength="86.0508" x="241.498" y="1309.6748">Data Access</text><rect fill="#F1F1F1" height="36.2969" rx="12.5" ry="12.5" style="stroke:#181818;stroke-width:1.5;" width="129.6553" x="387.5488" y="1145.9375"/><text fill="#000000" font-family="sans-serif" font-size="14" lengthAdjust="spacing" textLength="109.6553" x="397.5488" y="1168.9326">Spring Data JPA</text><path d="M337.5488,1304.8281 L347.5488,1304.8281 C362.5488,1304.8281 362.5488,1164.0859 377.5488,1164.0859 L387.5488,1164.0859" fill="none" style="stroke:#181818;stroke-width:1;"/><rect fill="#F1F1F1" height="36.2969" rx="12.5" ry="12.5" style="stroke:#181818;stroke-width:1.5;" width="170.8213" x="387.5488" y="1202.2344"/><text fill="#000000" font-family="sans-serif" font-size="14" lengthAdjust="spacing" textLength="150.8213" x="397.5488" y="1225.2295">Hibernate Integration</text><path d="M337.5488,1304.8281 L347.5488,1304.8281 C362.5488,1304.8281 362.5488,1220.3828 377.5488,1220.3828 L387.5488,1220.3828" fill="none" style="stroke:#181818;stroke-width:1;"/><rect fill="#F1F1F1" height="36.2969" rx="12.5" ry="12.5" style="stroke:#181818;stroke-width:1.5;" width="292.9863" x="387.5488" y="1258.5313"/><text fill="#000000" font-family="sans-serif" font-size="14" lengthAdjust="spacing" textLength="272.9863" x="397.5488" y="1281.5264">Entity Mapping (@Entity, @Table, @Id)</text><path d="M337.5488,1304.8281 L347.5488,1304.8281 C362.5488,1304.8281 362.5488,1276.6797 377.5488,1276.6797 L387.5488,1276.6797" fill="none" style="stroke:#181818;stroke-width:1;"/><rect fill="#F1F1F1" height="36.2969" rx="12.5" ry="12.5" style="stroke:#181818;stroke-width:1.5;" width="281.5361" x="387.5488" y="1314.8281"/><text fill="#000000" font-family="sans-serif" font-size="14" lengthAdjust="spacing" textLength="261.5361" x="397.5488" y="1337.8232">Repository Interfaces (JpaRepository)</text><path d="M337.5488,1304.8281 L347.5488,1304.8281 C362.5488,1304.8281 362.5488,1332.9766 377.5488,1332.9766 L387.5488,1332.9766" fill="none" style="stroke:#181818;stroke-width:1;"/><rect fill="#F1F1F1" height="36.2969" rx="12.5" ry="12.5" style="stroke:#181818;stroke-width:1.5;" width="175.0459" x="387.5488" y="1371.125"/><text fill="#000000" font-family="sans-serif" font-size="14" lengthAdjust="spacing" textLength="155.0459" x="397.5488" y="1394.1201">JPQL &amp; Native Queries</text><path d="M337.5488,1304.8281 L347.5488,1304.8281 C362.5488,1304.8281 362.5488,1389.2734 377.5488,1389.2734 L387.5488,1389.2734" fill="none" style="stroke:#181818;stroke-width:1;"/><rect fill="#F1F1F1" height="36.2969" rx="12.5" ry="12.5" style="stroke:#181818;stroke-width:1.5;" width="233.4316" x="387.5488" y="1427.4219"/><text fill="#000000" font-family="sans-serif" font-size="14" lengthAdjust="spacing" textLength="213.4316" x="397.5488" y="1450.417">Transactions (@Transactional)</text><path d="M337.5488,1304.8281 L347.5488,1304.8281 C362.5488,1304.8281 362.5488,1445.5703 377.5488,1445.5703 L387.5488,1445.5703" fill="none" style="stroke:#181818;stroke-width:1;"/><path d="M181.498,1839.6484 L191.498,1839.6484 C206.498,1839.6484 206.498,1304.8281 221.498,1304.8281 L231.498,1304.8281" fill="none" style="stroke:#181818;stroke-width:1;"/><rect fill="#F1F1F1" height="36.2969" rx="12.5" ry="12.5" style="stroke:#181818;stroke-width:1.5;" width="172.626" x="231.498" y="1540.0156"/><text fill="#000000" font-family="sans-serif" font-size="14" lengthAdjust="spacing" textLength="152.626" x="241.498" y="1563.0107">Database &amp; Migration</text><rect fill="#F1F1F1" height="36.2969" rx="12.5" ry="12.5" style="stroke:#181818;stroke-width:1.5;" width="294.8867" x="454.124" y="1483.7188"/><text fill="#000000" font-family="sans-serif" font-size="14" lengthAdjust="spacing" textLength="274.8867" x="464.124" y="1506.7139">H2 / MySQL / PostgreSQL Configuration</text><path d="M404.124,1558.1641 L414.124,1558.1641 C429.124,1558.1641 429.124,1501.8672 444.124,1501.8672 L454.124,1501.8672" fill="none" style="stroke:#181818;stroke-width:1;"/><rect fill="#F1F1F1" height="36.2969" rx="12.5" ry="12.5" style="stroke:#181818;stroke-width:1.5;" width="229.1182" x="454.124" y="1540.0156"/><text fill="#000000" font-family="sans-serif" font-size="14" lengthAdjust="spacing" textLength="209.1182" x="464.124" y="1563.0107">Connection Pooling (HikariCP)</text><path d="M404.124,1558.1641 L414.124,1558.1641 C429.124,1558.1641 429.124,1558.1641 444.124,1558.1641 L454.124,1558.1641" fill="none" style="stroke:#181818;stroke-width:1;"/><rect fill="#F1F1F1" height="36.2969" rx="12.5" ry="12.5" style="stroke:#181818;stroke-width:1.5;" width="148.8711" x="454.124" y="1596.3125"/><text fill="#000000" font-family="sans-serif" font-size="14" lengthAdjust="spacing" textLength="128.8711" x="464.124" y="1619.3076">Flyway / Liquibase</text><path d="M404.124,1558.1641 L414.124,1558.1641 C429.124,1558.1641 429.124,1614.4609 444.124,1614.4609 L454.124,1614.4609" fill="none" style="stroke:#181818;stroke-width:1;"/><path d="M181.498,1839.6484 L191.498,1839.6484 C206.498,1839.6484 206.498,1558.1641 221.498,1558.1641 L231.498,1558.1641" fill="none" style="stroke:#181818;stroke-width:1;"/><rect fill="#F1F1F1" height="36.2969" rx="12.5" ry="12.5" style="stroke:#181818;stroke-width:1.5;" width="77.4902" x="231.498" y="1765.2031"/><text fill="#000000" font-family="sans-serif" font-size="14" lengthAdjust="spacing" textLength="57.4902" x="241.498" y="1788.1982">Security</text><rect fill="#F1F1F1" height="36.2969" rx="12.5" ry="12.5" style="stroke:#181818;stroke-width:1.5;" width="175.9277" x="358.9883" y="1652.6094"/><text fill="#000000" font-family="sans-serif" font-size="14" lengthAdjust="spacing" textLength="155.9277" x="368.9883" y="1675.6045">Spring Security Basics</text><path d="M308.9883,1783.3516 L318.9883,1783.3516 C333.9883,1783.3516 333.9883,1670.7578 348.9883,1670.7578 L358.9883,1670.7578" fill="none" style="stroke:#181818;stroke-width:1;"/><rect fill="#F1F1F1" height="36.2969" rx="12.5" ry="12.5" style="stroke:#181818;stroke-width:1.5;" width="236.3574" x="358.9883" y="1708.9063"/><text fill="#000000" font-family="sans-serif" font-size="14" lengthAdjust="spacing" textLength="216.3574" x="368.9883" y="1731.9014">Authentication &amp; Authorization</text><path d="M308.9883,1783.3516 L318.9883,1783.3516 C333.9883,1783.3516 333.9883,1727.0547 348.9883,1727.0547 L358.9883,1727.0547" fill="none" style="stroke:#181818;stroke-width:1;"/><rect fill="#F1F1F1" height="36.2969" rx="12.5" ry="12.5" style="stroke:#181818;stroke-width:1.5;" width="128.1172" x="358.9883" y="1765.2031"/><text fill="#000000" font-family="sans-serif" font-size="14" lengthAdjust="spacing" textLength="108.1172" x="368.9883" y="1788.1982">JWT Integration</text><path d="M308.9883,1783.3516 L318.9883,1783.3516 C333.9883,1783.3516 333.9883,1783.3516 348.9883,1783.3516 L358.9883,1783.3516" fill="none" style="stroke:#181818;stroke-width:1;"/><rect fill="#F1F1F1" height="36.2969" rx="12.5" ry="12.5" style="stroke:#181818;stroke-width:1.5;" width="121.5479" x="358.9883" y="1821.5"/><text fill="#000000" font-family="sans-serif" font-size="14" lengthAdjust="spacing" textLength="101.5479" x="368.9883" y="1844.4951">OAuth2 Basics</text><path d="M308.9883,1783.3516 L318.9883,1783.3516 C333.9883,1783.3516 333.9883,1839.6484 348.9883,1839.6484 L358.9883,1839.6484" fill="none" style="stroke:#181818;stroke-width:1;"/><rect fill="#F1F1F1" height="36.2969" rx="12.5" ry="12.5" style="stroke:#181818;stroke-width:1.5;" width="155.2354" x="358.9883" y="1877.7969"/><text fill="#000000" font-family="sans-serif" font-size="14" lengthAdjust="spacing" textLength="135.2354" x="368.9883" y="1900.792">Password Encoding</text><path d="M308.9883,1783.3516 L318.9883,1783.3516 C333.9883,1783.3516 333.9883,1895.9453 348.9883,1895.9453 L358.9883,1895.9453" fill="none" style="stroke:#181818;stroke-width:1;"/><path d="M181.498,1839.6484 L191.498,1839.6484 C206.498,1839.6484 206.498,1783.3516 221.498,1783.3516 L231.498,1783.3516" fill="none" style="stroke:#181818;stroke-width:1;"/><rect fill="#F1F1F1" height="36.2969" rx="12.5" ry="12.5" style="stroke:#181818;stroke-width:1.5;" width="90.2188" x="231.498" y="1962.2422"/><text fill="#000000" font-family="sans-serif" font-size="14" lengthAdjust="spacing" textLength="70.2188" x="241.498" y="1985.2373">Validation</text><rect fill="#F1F1F1" height="36.2969" rx="12.5" ry="12.5" style="stroke:#181818;stroke-width:1.5;" width="304.2383" x="371.7168" y="1934.0938"/><text fill="#000000" font-family="sans-serif" font-size="14" lengthAdjust="spacing" textLength="284.2383" x="381.7168" y="1957.0889">Bean Validation (@Valid, @NotNull, etc.)</text><path d="M321.7168,1980.3906 L331.7168,1980.3906 C346.7168,1980.3906 346.7168,1952.2422 361.7168,1952.2422 L371.7168,1952.2422" fill="none" style="stroke:#181818;stroke-width:1;"/><rect fill="#F1F1F1" height="36.2969" rx="12.5" ry="12.5" style="stroke:#181818;stroke-width:1.5;" width="148.5908" x="371.7168" y="1990.3906"/><text fill="#000000" font-family="sans-serif" font-size="14" lengthAdjust="spacing" textLength="128.5908" x="381.7168" y="2013.3857">Custom Validators</text><path d="M321.7168,1980.3906 L331.7168,1980.3906 C346.7168,1980.3906 346.7168,2008.5391 361.7168,2008.5391 L371.7168,2008.5391" fill="none" style="stroke:#181818;stroke-width:1;"/><path d="M181.498,1839.6484 L191.498,1839.6484 C206.498,1839.6484 206.498,1980.3906 221.498,1980.3906 L231.498,1980.3906" fill="none" style="stroke:#181818;stroke-width:1;"/><rect fill="#F1F1F1" height="36.2969" rx="12.5" ry="12.5" style="stroke:#181818;stroke-width:1.5;" width="231.6064" x="231.498" y="2074.8359"/><text fill="#000000" font-family="sans-serif" font-size="14" lengthAdjust="spacing" textLength="211.6064" x="241.498" y="2097.8311">Exception Handling &amp; Logging</text><rect fill="#F1F1F1" height="36.2969" rx="12.5" ry="12.5" style="stroke:#181818;stroke-width:1.5;" width="205.1104" x="513.1045" y="2046.6875"/><text fill="#000000" font-family="sans-serif" font-size="14" lengthAdjust="spacing" textLength="185.1104" x="523.1045" y="2069.6826">Global Exception Handling</text><path d="M463.1045,2092.9844 L473.1045,2092.9844 C488.1045,2092.9844 488.1045,2064.8359 503.1045,2064.8359 L513.1045,2064.8359" fill="none" style="stroke:#181818;stroke-width:1;"/><rect fill="#F1F1F1" height="36.2969" rx="12.5" ry="12.5" style="stroke:#181818;stroke-width:1.5;" width="224.3057" x="513.1045" y="2102.9844"/><text fill="#000000" font-family="sans-serif" font-size="14" lengthAdjust="spacing" textLength="204.3057" x="523.1045" y="2125.9795">Logging with SLF4J / Logback</text><path d="M463.1045,2092.9844 L473.1045,2092.9844 C488.1045,2092.9844 488.1045,2121.1328 503.1045,2121.1328 L513.1045,2121.1328" fill="none" style="stroke:#181818;stroke-width:1;"/><path d="M181.498,1839.6484 L191.498,1839.6484 C206.498,1839.6484 206.498,2092.9844 221.498,2092.9844 L231.498,2092.9844" fill="none" style="stroke:#181818;stroke-width:1;"/><rect fill="#F1F1F1" height="36.2969" rx="12.5" ry="12.5" style="stroke:#181818;stroke-width:1.5;" width="212.3906" x="231.498" y="2271.875"/><text fill="#000000" font-family="sans-serif" font-size="14" lengthAdjust="spacing" textLength="192.3906" x="241.498" y="2294.8701">Microservices &amp; Integration</text><rect fill="#F1F1F1" height="36.2969" rx="12.5" ry="12.5" style="stroke:#181818;stroke-width:1.5;" width="212.2129" x="493.8887" y="2159.2813"/><text fill="#000000" font-family="sans-serif" font-size="14" lengthAdjust="spacing" textLength="192.2129" x="503.8887" y="2182.2764">REST Template / WebClient</text><path d="M443.8887,2290.0234 L453.8887,2290.0234 C468.8887,2290.0234 468.8887,2177.4297 483.8887,2177.4297 L493.8887,2177.4297" fill="none" style="stroke:#181818;stroke-width:1;"/><rect fill="#F1F1F1" height="36.2969" rx="12.5" ry="12.5" style="stroke:#181818;stroke-width:1.5;" width="95.708" x="493.8887" y="2215.5781"/><text fill="#000000" font-family="sans-serif" font-size="14" lengthAdjust="spacing" textLength="75.708" x="503.8887" y="2238.5732">OpenFeign</text><path d="M443.8887,2290.0234 L453.8887,2290.0234 C468.8887,2290.0234 468.8887,2233.7266 483.8887,2233.7266 L493.8887,2233.7266" fill="none" style="stroke:#181818;stroke-width:1;"/><rect fill="#F1F1F1" height="36.2969" rx="12.5" ry="12.5" style="stroke:#181818;stroke-width:1.5;" width="170.7939" x="493.8887" y="2271.875"/><text fill="#000000" font-family="sans-serif" font-size="14" lengthAdjust="spacing" textLength="150.7939" x="503.8887" y="2294.8701">API Gateway Concept</text><path d="M443.8887,2290.0234 L453.8887,2290.0234 C468.8887,2290.0234 468.8887,2290.0234 483.8887,2290.0234 L493.8887,2290.0234" fill="none" style="stroke:#181818;stroke-width:1;"/><rect fill="#F1F1F1" height="36.2969" rx="12.5" ry="12.5" style="stroke:#181818;stroke-width:1.5;" width="209.5059" x="493.8887" y="2328.1719"/><text fill="#000000" font-family="sans-serif" font-size="14" lengthAdjust="spacing" textLength="189.5059" x="503.8887" y="2351.167">Service Discovery (Eureka)</text><path d="M443.8887,2290.0234 L453.8887,2290.0234 C468.8887,2290.0234 468.8887,2346.3203 483.8887,2346.3203 L493.8887,2346.3203" fill="none" style="stroke:#181818;stroke-width:1;"/><rect fill="#F1F1F1" height="36.2969" rx="12.5" ry="12.5" style="stroke:#181818;stroke-width:1.5;" width="224.1211" x="493.8887" y="2384.4688"/><text fill="#000000" font-family="sans-serif" font-size="14" lengthAdjust="spacing" textLength="204.1211" x="503.8887" y="2407.4639">Circuit Breaker (Resilience4j)</text><path d="M443.8887,2290.0234 L453.8887,2290.0234 C468.8887,2290.0234 468.8887,2402.6172 483.8887,2402.6172 L493.8887,2402.6172" fill="none" style="stroke:#181818;stroke-width:1;"/><path d="M181.498,1839.6484 L191.498,1839.6484 C206.498,1839.6484 206.498,2290.0234 221.498,2290.0234 L231.498,2290.0234" fill="none" style="stroke:#181818;stroke-width:1;"/><rect fill="#F1F1F1" height="36.2969" rx="12.5" ry="12.5" style="stroke:#181818;stroke-width:1.5;" width="186.1406" x="231.498" y="2497.0625"/><text fill="#000000" font-family="sans-serif" font-size="14" lengthAdjust="spacing" textLength="166.1406" x="241.498" y="2520.0576">Configuration &amp; Profiles</text><rect fill="#F1F1F1" height="36.2969" rx="12.5" ry="12.5" style="stroke:#181818;stroke-width:1.5;" width="294.5313" x="467.6387" y="2440.7656"/><text fill="#000000" font-family="sans-serif" font-size="14" lengthAdjust="spacing" textLength="274.5313" x="477.6387" y="2463.7607">application.properties / application.yml</text><path d="M417.6387,2515.2109 L427.6387,2515.2109 C442.6387,2515.2109 442.6387,2458.9141 457.6387,2458.9141 L467.6387,2458.9141" fill="none" style="stroke:#181818;stroke-width:1;"/><rect fill="#F1F1F1" height="36.2969" rx="12.5" ry="12.5" style="stroke:#181818;stroke-width:1.5;" width="289.0215" x="467.6387" y="2497.0625"/><text fill="#000000" font-family="sans-serif" font-size="14" lengthAdjust="spacing" textLength="269.0215" x="477.6387" y="2520.0576">@Value and @ConfigurationProperties</text><path d="M417.6387,2515.2109 L427.6387,2515.2109 C442.6387,2515.2109 442.6387,2515.2109 457.6387,2515.2109 L467.6387,2515.2109" fill="none" style="stroke:#181818;stroke-width:1;"/><rect fill="#F1F1F1" height="36.2969" rx="12.5" ry="12.5" style="stroke:#181818;stroke-width:1.5;" width="121.0078" x="467.6387" y="2553.3594"/><text fill="#000000" font-family="sans-serif" font-size="14" lengthAdjust="spacing" textLength="101.0078" x="477.6387" y="2576.3545">Spring Profiles</text><path d="M417.6387,2515.2109 L427.6387,2515.2109 C442.6387,2515.2109 442.6387,2571.5078 457.6387,2571.5078 L467.6387,2571.5078" fill="none" style="stroke:#181818;stroke-width:1;"/><path d="M181.498,1839.6484 L191.498,1839.6484 C206.498,1839.6484 206.498,2515.2109 221.498,2515.2109 L231.498,2515.2109" fill="none" style="stroke:#181818;stroke-width:1;"/><rect fill="#F1F1F1" height="36.2969" rx="12.5" ry="12.5" style="stroke:#181818;stroke-width:1.5;" width="71.5977" x="231.498" y="2694.1016"/><text fill="#000000" font-family="sans-serif" font-size="14" lengthAdjust="spacing" textLength="51.5977" x="241.498" y="2717.0967">Testing</text><rect fill="#F1F1F1" height="36.2969" rx="12.5" ry="12.5" style="stroke:#181818;stroke-width:1.5;" width="249.9883" x="353.0957" y="2609.6563"/><text fill="#000000" font-family="sans-serif" font-size="14" lengthAdjust="spacing" textLength="229.9883" x="363.0957" y="2632.6514">Unit Testing with JUnit &amp; Mockito</text><path d="M303.0957,2712.25 L313.0957,2712.25 C328.0957,2712.25 328.0957,2627.8047 343.0957,2627.8047 L353.0957,2627.8047" fill="none" style="stroke:#181818;stroke-width:1;"/><rect fill="#F1F1F1" height="36.2969" rx="12.5" ry="12.5" style="stroke:#181818;stroke-width:1.5;" width="141.3516" x="353.0957" y="2665.9531"/><text fill="#000000" font-family="sans-serif" font-size="14" lengthAdjust="spacing" textLength="121.3516" x="363.0957" y="2688.9482">@SpringBootTest</text><path d="M303.0957,2712.25 L313.0957,2712.25 C328.0957,2712.25 328.0957,2684.1016 343.0957,2684.1016 L353.0957,2684.1016" fill="none" style="stroke:#181818;stroke-width:1;"/><rect fill="#F1F1F1" height="36.2969" rx="12.5" ry="12.5" style="stroke:#181818;stroke-width:1.5;" width="84.5107" x="353.0957" y="2722.25"/><text fill="#000000" font-family="sans-serif" font-size="14" lengthAdjust="spacing" textLength="64.5107" x="363.0957" y="2745.2451">MockMvc</text><path d="M303.0957,2712.25 L313.0957,2712.25 C328.0957,2712.25 328.0957,2740.3984 343.0957,2740.3984 L353.0957,2740.3984" fill="none" style="stroke:#181818;stroke-width:1;"/><rect fill="#F1F1F1" height="36.2969" rx="12.5" ry="12.5" style="stroke:#181818;stroke-width:1.5;" width="153.1914" x="353.0957" y="2778.5469"/><text fill="#000000" font-family="sans-serif" font-size="14" lengthAdjust="spacing" textLength="133.1914" x="363.0957" y="2801.542">Integration Testing</text><path d="M303.0957,2712.25 L313.0957,2712.25 C328.0957,2712.25 328.0957,2796.6953 343.0957,2796.6953 L353.0957,2796.6953" fill="none" style="stroke:#181818;stroke-width:1;"/><path d="M181.498,1839.6484 L191.498,1839.6484 C206.498,1839.6484 206.498,2712.25 221.498,2712.25 L231.498,2712.25" fill="none" style="stroke:#181818;stroke-width:1;"/><rect fill="#F1F1F1" height="36.2969" rx="12.5" ry="12.5" style="stroke:#181818;stroke-width:1.5;" width="76.5742" x="231.498" y="2862.9922"/><text fill="#000000" font-family="sans-serif" font-size="14" lengthAdjust="spacing" textLength="56.5742" x="241.498" y="2885.9873">Caching</text><rect fill="#F1F1F1" height="36.2969" rx="12.5" ry="12.5" style="stroke:#181818;stroke-width:1.5;" width="113.167" x="358.0723" y="2834.8438"/><text fill="#000000" font-family="sans-serif" font-size="14" lengthAdjust="spacing" textLength="93.167" x="368.0723" y="2857.8389">Spring Cache</text><path d="M308.0723,2881.1406 L318.0723,2881.1406 C333.0723,2881.1406 333.0723,2852.9922 348.0723,2852.9922 L358.0723,2852.9922" fill="none" style="stroke:#181818;stroke-width:1;"/><rect fill="#F1F1F1" height="36.2969" rx="12.5" ry="12.5" style="stroke:#181818;stroke-width:1.5;" width="140.0049" x="358.0723" y="2891.1406"/><text fill="#000000" font-family="sans-serif" font-size="14" lengthAdjust="spacing" textLength="120.0049" x="368.0723" y="2914.1357">Redis Integration</text><path d="M308.0723,2881.1406 L318.0723,2881.1406 C333.0723,2881.1406 333.0723,2909.2891 348.0723,2909.2891 L358.0723,2909.2891" fill="none" style="stroke:#181818;stroke-width:1;"/><path d="M181.498,1839.6484 L191.498,1839.6484 C206.498,1839.6484 206.498,2881.1406 221.498,2881.1406 L231.498,2881.1406" fill="none" style="stroke:#181818;stroke-width:1;"/><rect fill="#F1F1F1" height="36.2969" rx="12.5" ry="12.5" style="stroke:#181818;stroke-width:1.5;" width="94.3955" x="231.498" y="2947.4375"/><text fill="#000000" font-family="sans-serif" font-size="14" lengthAdjust="spacing" textLength="74.3955" x="241.498" y="2970.4326">Messaging</text><rect fill="#F1F1F1" height="36.2969" rx="12.5" ry="12.5" style="stroke:#181818;stroke-width:1.5;" width="223.1436" x="375.8936" y="2947.4375"/><text fill="#000000" font-family="sans-serif" font-size="14" lengthAdjust="spacing" textLength="203.1436" x="385.8936" y="2970.4326">Kafka / RabbitMQ Integration</text><path d="M325.8936,2965.5859 L335.8936,2965.5859 C350.8936,2965.5859 350.8936,2965.5859 365.8936,2965.5859 L375.8936,2965.5859" fill="none" style="stroke:#181818;stroke-width:1;"/><path d="M181.498,1839.6484 L191.498,1839.6484 C206.498,1839.6484 206.498,2965.5859 221.498,2965.5859 L231.498,2965.5859" fill="none" style="stroke:#181818;stroke-width:1;"/><rect fill="#F1F1F1" height="36.2969" rx="12.5" ry="12.5" style="stroke:#181818;stroke-width:1.5;" width="174.7109" x="231.498" y="3060.0313"/><text fill="#000000" font-family="sans-serif" font-size="14" lengthAdjust="spacing" textLength="154.7109" x="241.498" y="3083.0264">Actuator &amp; Monitoring</text><rect fill="#F1F1F1" height="36.2969" rx="12.5" ry="12.5" style="stroke:#181818;stroke-width:1.5;" width="166.3301" x="456.209" y="3003.7344"/><text fill="#000000" font-family="sans-serif" font-size="14" lengthAdjust="spacing" textLength="146.3301" x="466.209" y="3026.7295">Spring Boot Actuator</text><path d="M406.209,3078.1797 L416.209,3078.1797 C431.209,3078.1797 431.209,3021.8828 446.209,3021.8828 L456.209,3021.8828" fill="none" style="stroke:#181818;stroke-width:1;"/><rect fill="#F1F1F1" height="36.2969" rx="12.5" ry="12.5" style="stroke:#181818;stroke-width:1.5;" width="120.7822" x="456.209" y="3060.0313"/><text fill="#000000" font-family="sans-serif" font-size="14" lengthAdjust="spacing" textLength="100.7822" x="466.209" y="3083.0264">Health Checks</text><path d="M406.209,3078.1797 L416.209,3078.1797 C431.209,3078.1797 431.209,3078.1797 446.209,3078.1797 L456.209,3078.1797" fill="none" style="stroke:#181818;stroke-width:1;"/><rect fill="#F1F1F1" height="36.2969" rx="12.5" ry="12.5" style="stroke:#181818;stroke-width:1.5;" width="165.5029" x="456.209" y="3116.3281"/><text fill="#000000" font-family="sans-serif" font-size="14" lengthAdjust="spacing" textLength="145.5029" x="466.209" y="3139.3232">Metrics &amp; Monitoring</text><path d="M406.209,3078.1797 L416.209,3078.1797 C431.209,3078.1797 431.209,3134.4766 446.209,3134.4766 L456.209,3134.4766" fill="none" style="stroke:#181818;stroke-width:1;"/><path d="M181.498,1839.6484 L191.498,1839.6484 C206.498,1839.6484 206.498,3078.1797 221.498,3078.1797 L231.498,3078.1797" fill="none" style="stroke:#181818;stroke-width:1;"/><rect fill="#F1F1F1" height="36.2969" rx="12.5" ry="12.5" style="stroke:#181818;stroke-width:1.5;" width="160.5947" x="231.498" y="3257.0703"/><text fill="#000000" font-family="sans-serif" font-size="14" lengthAdjust="spacing" textLength="140.5947" x="241.498" y="3280.0654">Build &amp; Deployment</text><rect fill="#F1F1F1" height="36.2969" rx="12.5" ry="12.5" style="stroke:#181818;stroke-width:1.5;" width="126.6201" x="442.0928" y="3172.625"/><text fill="#000000" font-family="sans-serif" font-size="14" lengthAdjust="spacing" textLength="106.6201" x="452.0928" y="3195.6201">Maven / Gradle</text><path d="M392.0928,3275.2188 L402.0928,3275.2188 C417.0928,3275.2188 417.0928,3190.7734 432.0928,3190.7734 L442.0928,3190.7734" fill="none" style="stroke:#181818;stroke-width:1;"/><rect fill="#F1F1F1" height="36.2969" rx="12.5" ry="12.5" style="stroke:#181818;stroke-width:1.5;" width="125.6563" x="442.0928" y="3228.9219"/><text fill="#000000" font-family="sans-serif" font-size="14" lengthAdjust="spacing" textLength="105.6563" x="452.0928" y="3251.917">Executable JAR</text><path d="M392.0928,3275.2188 L402.0928,3275.2188 C417.0928,3275.2188 417.0928,3247.0703 432.0928,3247.0703 L442.0928,3247.0703" fill="none" style="stroke:#181818;stroke-width:1;"/><rect fill="#F1F1F1" height="36.2969" rx="12.5" ry="12.5" style="stroke:#181818;stroke-width:1.5;" width="220.5117" x="442.0928" y="3285.2188"/><text fill="#000000" font-family="sans-serif" font-size="14" lengthAdjust="spacing" textLength="200.5117" x="452.0928" y="3308.2139">Dockerizing Spring Boot App</text><path d="M392.0928,3275.2188 L402.0928,3275.2188 C417.0928,3275.2188 417.0928,3303.3672 432.0928,3303.3672 L442.0928,3303.3672" fill="none" style="stroke:#181818;stroke-width:1;"/><rect fill="#F1F1F1" height="36.2969" rx="12.5" ry="12.5" style="stroke:#181818;stroke-width:1.5;" width="270.0449" x="442.0928" y="3341.5156"/><text fill="#000000" font-family="sans-serif" font-size="14" lengthAdjust="spacing" textLength="250.0449" x="452.0928" y="3364.5107">Deployment to Cloud (AWS / Azure)</text><path d="M392.0928,3275.2188 L402.0928,3275.2188 C417.0928,3275.2188 417.0928,3359.6641 432.0928,3359.6641 L442.0928,3359.6641" fill="none" style="stroke:#181818;stroke-width:1;"/><path d="M181.498,1839.6484 L191.498,1839.6484 C206.498,1839.6484 206.498,3275.2188 221.498,3275.2188 L231.498,3275.2188" fill="none" style="stroke:#181818;stroke-width:1;"/><rect fill="#F1F1F1" height="36.2969" rx="12.5" ry="12.5" style="stroke:#181818;stroke-width:1.5;" width="138.7334" x="231.498" y="3510.4063"/><text fill="#000000" font-family="sans-serif" font-size="14" lengthAdjust="spacing" textLength="118.7334" x="241.498" y="3533.4014">Advanced Topics</text><rect fill="#F1F1F1" height="36.2969" rx="12.5" ry="12.5" style="stroke:#181818;stroke-width:1.5;" width="277.5234" x="420.2314" y="3397.8125"/><text fill="#000000" font-family="sans-serif" font-size="14" lengthAdjust="spacing" textLength="257.5234" x="430.2314" y="3420.8076">AOP (Aspect-Oriented Programming)</text><path d="M370.2314,3528.5547 L380.2314,3528.5547 C395.2314,3528.5547 395.2314,3415.9609 410.2314,3415.9609 L420.2314,3415.9609" fill="none" style="stroke:#181818;stroke-width:1;"/><rect fill="#F1F1F1" height="36.2969" rx="12.5" ry="12.5" style="stroke:#181818;stroke-width:1.5;" width="162.1533" x="420.2314" y="3454.1094"/><text fill="#000000" font-family="sans-serif" font-size="14" lengthAdjust="spacing" textLength="142.1533" x="430.2314" y="3477.1045">Custom Annotations</text><path d="M370.2314,3528.5547 L380.2314,3528.5547 C395.2314,3528.5547 395.2314,3472.2578 410.2314,3472.2578 L420.2314,3472.2578" fill="none" style="stroke:#181818;stroke-width:1;"/><rect fill="#F1F1F1" height="36.2969" rx="12.5" ry="12.5" style="stroke:#181818;stroke-width:1.5;" width="167.9639" x="420.2314" y="3510.4063"/><text fill="#000000" font-family="sans-serif" font-size="14" lengthAdjust="spacing" textLength="147.9639" x="430.2314" y="3533.4014">Interceptors &amp; Filters</text><path d="M370.2314,3528.5547 L380.2314,3528.5547 C395.2314,3528.5547 395.2314,3528.5547 410.2314,3528.5547 L420.2314,3528.5547" fill="none" style="stroke:#181818;stroke-width:1;"/><rect fill="#F1F1F1" height="36.2969" rx="12.5" ry="12.5" style="stroke:#181818;stroke-width:1.5;" width="212.5889" x="420.2314" y="3566.7031"/><text fill="#000000" font-family="sans-serif" font-size="14" lengthAdjust="spacing" textLength="192.5889" x="430.2314" y="3589.6982">Async Processing (@Async)</text><path d="M370.2314,3528.5547 L380.2314,3528.5547 C395.2314,3528.5547 395.2314,3584.8516 410.2314,3584.8516 L420.2314,3584.8516" fill="none" style="stroke:#181818;stroke-width:1;"/><rect fill="#F1F1F1" height="36.2969" rx="12.5" ry="12.5" style="stroke:#181818;stroke-width:1.5;" width="199.9629" x="420.2314" y="3623"/><text fill="#000000" font-family="sans-serif" font-size="14" lengthAdjust="spacing" textLength="179.9629" x="430.2314" y="3645.9951">Scheduling (@Scheduled)</text><path d="M370.2314,3528.5547 L380.2314,3528.5547 C395.2314,3528.5547 395.2314,3641.1484 410.2314,3641.1484 L420.2314,3641.1484" fill="none" style="stroke:#181818;stroke-width:1;"/><path d="M181.498,1839.6484 L191.498,1839.6484 C206.498,1839.6484 206.498,3528.5547 221.498,3528.5547 L231.498,3528.5547" fill="none" style="stroke:#181818;stroke-width:1;"/><?plantuml-src RLPDS-8u4BtdL-X4GIgRxB9JSyOmaC3Yu02Rr1w5t8068Nba6SRvzTij2N12JebQxVvu_Vg9NkcuTNkfypqlRcxPeh1IRrZV6CS6HWieN7bpStkB1mkipqifIZoU7KUMx-5ex8xD3c0F4exDMnyciM8h7GXNMRYwN51wi25cKZb3MTToKrdkfD71N1HA2dzccJK5M2UXP0_iloITNaKSJCU-u1zGWCv1YvgDzKzCJv-tM1-u3jd66YikoMhMbDLPerXxR0OTV_tbz-qVut3R6vXzOJHeTyTw2-fS0FutXyAKqXbRtv6BZwd0Xa-elQEqaFiZ5SAcSWsY5WekfeN03WFcy-5YoP9iZBKSG9bYZ-b2g3cKxdFuEVogq9poea0mCFyZD0wPQLo14_V-euoxBNlbLlALGaXRB0R12nnimEbawfkyzXubDbu26sedNUrTXh-9A0JG4zUvebcq6-qdES7JyJt5KQMlWu2oB0lkn1OiWQWWzFUAFA94HXrYTwd9GTs5FudEoI5CcJlE4Y6W_41BRvvaYRSzoHLOpHtW81ri6imABR282zOS30ZNaW31l-Ey4q4u3TO7iMkEALbxKl3BJV2SP2zJXEaPino0lLHWaQp-PccHUjmJ2J_jDOvSTSxTh3XYssAfR1Rwr4Mwf_K2Gpym6kN60XskbmKjEf8rCoQCuadkSCI3B1GuKlMHrnXdAdzLajA5mO2ex6cW4SQJhRduoE8jyl2qa2rlC5Q-NsgOl2sle9wHMxSPAEDbYSgHunI4oJ6TB-ELAvbVFlChSR4XRFw0atasxhbIAf0vT3QeIcVs9tTZmnPzGSuMcvhDXbBIPu_AhBZwmi_VHazsbBWgY-desuIWCviL5piVFvN2cZ980AtGvyxz5YzXNoYYu0DxWzL0oTCgpr1bHY0tKUfmsH_HZGOKvJVC8uIdTH46Tw9cxI7AwOx7ngKLbSGLjS1tO5aRTqTI3W7VVdQYVZUOWbMYaAwbYipa5uMzBveAsxoezoe83U9R0KEClCHTebwqkScXSoAgOeb2SWBsNuqLHqD0T-9Do7qZThXH8Li8Gz9Elb4Cn2uzYAZYPxJFqNs_75-Tc2bMGYQ8svpByiEW_21HHFYP5V_mzOuZ17E-MacNlbov9_YY4SjymPeKu5E-yFf5hx36m1NsETY2s0MGKd0M5-9Z38hUhwJAqOpFa3BrMVbJVW2DLJrQdiTNO_WRjzIHNh59CW-gYW2Xxhpx7MuMKnIdjoq6PVJYAbFbh9syBJ1myewy2fH1sUR8e9mjJN7U_bc6dcM14lF7p1AByHv7ZC3iyLV4viCY9beRvm4hpxEon6bSJMnj9DNbwIzhBIWGANdGOcyAyHOukBoAxqey02hpJG-VwDEFbvk_xhj_Th_VTrVW-D__0m00?></g></svg>