<?plantuml 1.2026.2beta3?><svg xmlns="http://www.w3.org/2000/svg" xmlns:xlink="http://www.w3.org/1999/xlink" contentStyleType="text/css" data-diagram-type="MINDMAP" height="3850px" preserveAspectRatio="none" style="width:787px;height:3850px;background:#FFFFFF;" version="1.1" viewBox="0 0 787 3850" width="787px" zoomAndPan="magnify"><defs/><g><rect fill="#F1F1F1" height="36.2969" rx="12.5" ry="12.5" style="stroke:#181818;stroke-width:1.5;" width="144.0791" x="10" y="1905.9453"/><text fill="#000000" font-family="sans-serif" font-size="14" lengthAdjust="spacing" textLength="124.0791" x="20" y="1928.9404">Angular Concepts</text><rect fill="#F1F1F1" height="36.2969" rx="12.5" ry="12.5" style="stroke:#181818;stroke-width:1.5;" width="101.5186" x="204.0791" y="188.8906"/><text fill="#000000" font-family="sans-serif" font-size="14" lengthAdjust="spacing" textLength="81.5186" x="214.0791" y="211.8857">Core Basics</text><rect fill="#F1F1F1" height="36.2969" rx="12.5" ry="12.5" style="stroke:#181818;stroke-width:1.5;" width="298.6738" x="355.5977" y="20"/><text fill="#000000" font-family="sans-serif" font-size="14" lengthAdjust="spacing" textLength="278.6738" x="365.5977" y="42.9951">Angular Architecture &amp; Folder Structure</text><path d="M305.5977,207.0391 L315.5977,207.0391 C330.5977,207.0391 330.5977,38.1484 345.5977,38.1484 L355.5977,38.1484" fill="none" style="stroke:#181818;stroke-width:1;"/><rect fill="#F1F1F1" height="36.2969" rx="12.5" ry="12.5" style="stroke:#181818;stroke-width:1.5;" width="163.8418" x="355.5977" y="76.2969"/><text fill="#000000" font-family="sans-serif" font-size="14" lengthAdjust="spacing" textLength="143.8418" x="365.5977" y="99.292">Modules (NgModule)</text><path d="M305.5977,207.0391 L315.5977,207.0391 C330.5977,207.0391 330.5977,94.4453 345.5977,94.4453 L355.5977,94.4453" fill="none" style="stroke:#181818;stroke-width:1;"/><rect fill="#F1F1F1" height="36.2969" rx="12.5" ry="12.5" style="stroke:#181818;stroke-width:1.5;" width="108.5732" x="355.5977" y="132.5938"/><text fill="#000000" font-family="sans-serif" font-size="14" lengthAdjust="spacing" textLength="88.5732" x="365.5977" y="155.5889">Components</text><path d="M305.5977,207.0391 L315.5977,207.0391 C330.5977,207.0391 330.5977,150.7422 345.5977,150.7422 L355.5977,150.7422" fill="none" style="stroke:#181818;stroke-width:1;"/><rect fill="#F1F1F1" height="36.2969" rx="12.5" ry="12.5" style="stroke:#181818;stroke-width:1.5;" width="179.667" x="355.5977" y="188.8906"/><text fill="#000000" font-family="sans-serif" font-size="14" lengthAdjust="spacing" textLength="159.667" x="365.5977" y="211.8857">Templates &amp; Metadata</text><path d="M305.5977,207.0391 L315.5977,207.0391 C330.5977,207.0391 330.5977,207.0391 345.5977,207.0391 L355.5977,207.0391" fill="none" style="stroke:#181818;stroke-width:1;"/><rect fill="#F1F1F1" height="36.2969" rx="12.5" ry="12.5" style="stroke:#181818;stroke-width:1.5;" width="110.7813" x="355.5977" y="245.1875"/><text fill="#000000" font-family="sans-serif" font-size="14" lengthAdjust="spacing" textLength="90.7813" x="365.5977" y="268.1826">Data Binding</text><path d="M305.5977,207.0391 L315.5977,207.0391 C330.5977,207.0391 330.5977,263.3359 345.5977,263.3359 L355.5977,263.3359" fill="none" style="stroke:#181818;stroke-width:1;"/><rect fill="#F1F1F1" height="36.2969" rx="12.5" ry="12.5" style="stroke:#181818;stroke-width:1.5;" width="256.8516" x="355.5977" y="301.4844"/><text fill="#000000" font-family="sans-serif" font-size="14" lengthAdjust="spacing" textLength="236.8516" x="365.5977" y="324.4795">Directives (Structural &amp; Attribute)</text><path d="M305.5977,207.0391 L315.5977,207.0391 C330.5977,207.0391 330.5977,319.6328 345.5977,319.6328 L355.5977,319.6328" fill="none" style="stroke:#181818;stroke-width:1;"/><rect fill="#F1F1F1" height="36.2969" rx="12.5" ry="12.5" style="stroke:#181818;stroke-width:1.5;" width="57.126" x="355.5977" y="357.7813"/><text fill="#000000" font-family="sans-serif" font-size="14" lengthAdjust="spacing" textLength="37.126" x="365.5977" y="380.7764">Pipes</text><path d="M305.5977,207.0391 L315.5977,207.0391 C330.5977,207.0391 330.5977,375.9297 345.5977,375.9297 L355.5977,375.9297" fill="none" style="stroke:#181818;stroke-width:1;"/><path d="M154.0791,1924.0938 L164.0791,1924.0938 C179.0791,1924.0938 179.0791,207.0391 194.0791,207.0391 L204.0791,207.0391" fill="none" style="stroke:#181818;stroke-width:1;"/><rect fill="#F1F1F1" height="36.2969" rx="12.5" ry="12.5" style="stroke:#181818;stroke-width:1.5;" width="132.4922" x="204.0791" y="498.5234"/><text fill="#000000" font-family="sans-serif" font-size="14" lengthAdjust="spacing" textLength="112.4922" x="214.0791" y="521.5186">TypeScript &amp; ES</text><rect fill="#F1F1F1" height="36.2969" rx="12.5" ry="12.5" style="stroke:#181818;stroke-width:1.5;" width="143.751" x="386.5713" y="414.0781"/><text fill="#000000" font-family="sans-serif" font-size="14" lengthAdjust="spacing" textLength="123.751" x="396.5713" y="437.0732">TypeScript Basics</text><path d="M336.5713,516.6719 L346.5713,516.6719 C361.5713,516.6719 361.5713,432.2266 376.5713,432.2266 L386.5713,432.2266" fill="none" style="stroke:#181818;stroke-width:1;"/><rect fill="#F1F1F1" height="36.2969" rx="12.5" ry="12.5" style="stroke:#181818;stroke-width:1.5;" width="97.0957" x="386.5713" y="470.375"/><text fill="#000000" font-family="sans-serif" font-size="14" lengthAdjust="spacing" textLength="77.0957" x="396.5713" y="493.3701">Decorators</text><path d="M336.5713,516.6719 L346.5713,516.6719 C361.5713,516.6719 361.5713,488.5234 376.5713,488.5234 L386.5713,488.5234" fill="none" style="stroke:#181818;stroke-width:1;"/><rect fill="#F1F1F1" height="36.2969" rx="12.5" ry="12.5" style="stroke:#181818;stroke-width:1.5;" width="151.4209" x="386.5713" y="526.6719"/><text fill="#000000" font-family="sans-serif" font-size="14" lengthAdjust="spacing" textLength="131.4209" x="396.5713" y="549.667">Interfaces &amp; Types</text><path d="M336.5713,516.6719 L346.5713,516.6719 C361.5713,516.6719 361.5713,544.8203 376.5713,544.8203 L386.5713,544.8203" fill="none" style="stroke:#181818;stroke-width:1;"/><rect fill="#F1F1F1" height="36.2969" rx="12.5" ry="12.5" style="stroke:#181818;stroke-width:1.5;" width="124.0908" x="386.5713" y="582.9688"/><text fill="#000000" font-family="sans-serif" font-size="14" lengthAdjust="spacing" textLength="104.0908" x="396.5713" y="605.9639">ES6+ Features</text><path d="M336.5713,516.6719 L346.5713,516.6719 C361.5713,516.6719 361.5713,601.1172 376.5713,601.1172 L386.5713,601.1172" fill="none" style="stroke:#181818;stroke-width:1;"/><path d="M154.0791,1924.0938 L164.0791,1924.0938 C179.0791,1924.0938 179.0791,516.6719 194.0791,516.6719 L204.0791,516.6719" fill="none" style="stroke:#181818;stroke-width:1;"/><rect fill="#F1F1F1" height="36.2969" rx="12.5" ry="12.5" style="stroke:#181818;stroke-width:1.5;" width="251.4443" x="204.0791" y="723.7109"/><text fill="#000000" font-family="sans-serif" font-size="14" lengthAdjust="spacing" textLength="231.4443" x="214.0791" y="746.7061">Services &amp; Dependency Injection</text><rect fill="#F1F1F1" height="36.2969" rx="12.5" ry="12.5" style="stroke:#181818;stroke-width:1.5;" width="79.0352" x="505.5234" y="639.2656"/><text fill="#000000" font-family="sans-serif" font-size="14" lengthAdjust="spacing" textLength="59.0352" x="515.5234" y="662.2607">Services</text><path d="M455.5234,741.8594 L465.5234,741.8594 C480.5234,741.8594 480.5234,657.4141 495.5234,657.4141 L505.5234,657.4141" fill="none" style="stroke:#181818;stroke-width:1;"/><rect fill="#F1F1F1" height="36.2969" rx="12.5" ry="12.5" style="stroke:#181818;stroke-width:1.5;" width="202.875" x="505.5234" y="695.5625"/><text fill="#000000" font-family="sans-serif" font-size="14" lengthAdjust="spacing" textLength="182.875" x="515.5234" y="718.5576">Dependency Injection (DI)</text><path d="M455.5234,741.8594 L465.5234,741.8594 C480.5234,741.8594 480.5234,713.7109 495.5234,713.7109 L505.5234,713.7109" fill="none" style="stroke:#181818;stroke-width:1;"/><rect fill="#F1F1F1" height="36.2969" rx="12.5" ry="12.5" style="stroke:#181818;stroke-width:1.5;" width="234.7578" x="505.5234" y="751.8594"/><text fill="#000000" font-family="sans-serif" font-size="14" lengthAdjust="spacing" textLength="214.7578" x="515.5234" y="774.8545">Providers &amp; Singleton Services</text><path d="M455.5234,741.8594 L465.5234,741.8594 C480.5234,741.8594 480.5234,770.0078 495.5234,770.0078 L505.5234,770.0078" fill="none" style="stroke:#181818;stroke-width:1;"/><rect fill="#F1F1F1" height="36.2969" rx="12.5" ry="12.5" style="stroke:#181818;stroke-width:1.5;" width="245.0186" x="505.5234" y="808.1563"/><text fill="#000000" font-family="sans-serif" font-size="14" lengthAdjust="spacing" textLength="225.0186" x="515.5234" y="831.1514">Dependency Injection Hierarchy</text><path d="M455.5234,741.8594 L465.5234,741.8594 C480.5234,741.8594 480.5234,826.3047 495.5234,826.3047 L505.5234,826.3047" fill="none" style="stroke:#181818;stroke-width:1;"/><path d="M154.0791,1924.0938 L164.0791,1924.0938 C179.0791,1924.0938 179.0791,741.8594 194.0791,741.8594 L204.0791,741.8594" fill="none" style="stroke:#181818;stroke-width:1;"/><rect fill="#F1F1F1" height="36.2969" rx="12.5" ry="12.5" style="stroke:#181818;stroke-width:1.5;" width="262.915" x="204.0791" y="948.8984"/><text fill="#000000" font-family="sans-serif" font-size="14" lengthAdjust="spacing" textLength="242.915" x="214.0791" y="971.8936">Component Interaction &amp; Lifecycle</text><rect fill="#F1F1F1" height="36.2969" rx="12.5" ry="12.5" style="stroke:#181818;stroke-width:1.5;" width="258.1436" x="516.9941" y="864.4531"/><text fill="#000000" font-family="sans-serif" font-size="14" lengthAdjust="spacing" textLength="238.1436" x="526.9941" y="887.4482">@Input / @Output &amp; EventEmitter</text><path d="M466.9941,967.0469 L476.9941,967.0469 C491.9941,967.0469 491.9941,882.6016 506.9941,882.6016 L516.9941,882.6016" fill="none" style="stroke:#181818;stroke-width:1;"/><rect fill="#F1F1F1" height="36.2969" rx="12.5" ry="12.5" style="stroke:#181818;stroke-width:1.5;" width="193.4551" x="516.9941" y="920.75"/><text fill="#000000" font-family="sans-serif" font-size="14" lengthAdjust="spacing" textLength="173.4551" x="526.9941" y="943.7451">ViewChild / ContentChild</text><path d="M466.9941,967.0469 L476.9941,967.0469 C491.9941,967.0469 491.9941,938.8984 506.9941,938.8984 L516.9941,938.8984" fill="none" style="stroke:#181818;stroke-width:1;"/><rect fill="#F1F1F1" height="36.2969" rx="12.5" ry="12.5" style="stroke:#181818;stroke-width:1.5;" width="214.6533" x="516.9941" y="977.0469"/><text fill="#000000" font-family="sans-serif" font-size="14" lengthAdjust="spacing" textLength="194.6533" x="526.9941" y="1000.042">Component Lifecycle Hooks</text><path d="M466.9941,967.0469 L476.9941,967.0469 C491.9941,967.0469 491.9941,995.1953 506.9941,995.1953 L516.9941,995.1953" fill="none" style="stroke:#181818;stroke-width:1;"/><rect fill="#F1F1F1" height="36.2969" rx="12.5" ry="12.5" style="stroke:#181818;stroke-width:1.5;" width="133.0801" x="516.9941" y="1033.3438"/><text fill="#000000" font-family="sans-serif" font-size="14" lengthAdjust="spacing" textLength="113.0801" x="526.9941" y="1056.3389">Shared Services</text><path d="M466.9941,967.0469 L476.9941,967.0469 C491.9941,967.0469 491.9941,1051.4922 506.9941,1051.4922 L516.9941,1051.4922" fill="none" style="stroke:#181818;stroke-width:1;"/><path d="M154.0791,1924.0938 L164.0791,1924.0938 C179.0791,1924.0938 179.0791,967.0469 194.0791,967.0469 L204.0791,967.0469" fill="none" style="stroke:#181818;stroke-width:1;"/><rect fill="#F1F1F1" height="36.2969" rx="12.5" ry="12.5" style="stroke:#181818;stroke-width:1.5;" width="169.6318" x="204.0791" y="1230.3828"/><text fill="#000000" font-family="sans-serif" font-size="14" lengthAdjust="spacing" textLength="149.6318" x="214.0791" y="1253.3779">Routing &amp; Navigation</text><rect fill="#F1F1F1" height="36.2969" rx="12.5" ry="12.5" style="stroke:#181818;stroke-width:1.5;" width="125.9092" x="423.7109" y="1089.6406"/><text fill="#000000" font-family="sans-serif" font-size="14" lengthAdjust="spacing" textLength="105.9092" x="433.7109" y="1112.6357">Angular Router</text><path d="M373.7109,1248.5313 L383.7109,1248.5313 C398.7109,1248.5313 398.7109,1107.7891 413.7109,1107.7891 L423.7109,1107.7891" fill="none" style="stroke:#181818;stroke-width:1;"/><rect fill="#F1F1F1" height="36.2969" rx="12.5" ry="12.5" style="stroke:#181818;stroke-width:1.5;" width="146.4785" x="423.7109" y="1145.9375"/><text fill="#000000" font-family="sans-serif" font-size="14" lengthAdjust="spacing" textLength="126.4785" x="433.7109" y="1168.9326">Route Parameters</text><path d="M373.7109,1248.5313 L383.7109,1248.5313 C398.7109,1248.5313 398.7109,1164.0859 413.7109,1164.0859 L423.7109,1164.0859" fill="none" style="stroke:#181818;stroke-width:1;"/><rect fill="#F1F1F1" height="36.2969" rx="12.5" ry="12.5" style="stroke:#181818;stroke-width:1.5;" width="111.9434" x="423.7109" y="1202.2344"/><text fill="#000000" font-family="sans-serif" font-size="14" lengthAdjust="spacing" textLength="91.9434" x="433.7109" y="1225.2295">Lazy Loading</text><path d="M373.7109,1248.5313 L383.7109,1248.5313 C398.7109,1248.5313 398.7109,1220.3828 413.7109,1220.3828 L423.7109,1220.3828" fill="none" style="stroke:#181818;stroke-width:1;"/><rect fill="#F1F1F1" height="36.2969" rx="12.5" ry="12.5" style="stroke:#181818;stroke-width:1.5;" width="115.9561" x="423.7109" y="1258.5313"/><text fill="#000000" font-family="sans-serif" font-size="14" lengthAdjust="spacing" textLength="95.9561" x="433.7109" y="1281.5264">Route Guards</text><path d="M373.7109,1248.5313 L383.7109,1248.5313 C398.7109,1248.5313 398.7109,1276.6797 413.7109,1276.6797 L423.7109,1276.6797" fill="none" style="stroke:#181818;stroke-width:1;"/><rect fill="#F1F1F1" height="36.2969" rx="12.5" ry="12.5" style="stroke:#181818;stroke-width:1.5;" width="88.0381" x="423.7109" y="1314.8281"/><text fill="#000000" font-family="sans-serif" font-size="14" lengthAdjust="spacing" textLength="68.0381" x="433.7109" y="1337.8232">Resolvers</text><path d="M373.7109,1248.5313 L383.7109,1248.5313 C398.7109,1248.5313 398.7109,1332.9766 413.7109,1332.9766 L423.7109,1332.9766" fill="none" style="stroke:#181818;stroke-width:1;"/><rect fill="#F1F1F1" height="36.2969" rx="12.5" ry="12.5" style="stroke:#181818;stroke-width:1.5;" width="123.209" x="423.7109" y="1371.125"/><text fill="#000000" font-family="sans-serif" font-size="14" lengthAdjust="spacing" textLength="103.209" x="433.7109" y="1394.1201">Route Security</text><path d="M373.7109,1248.5313 L383.7109,1248.5313 C398.7109,1248.5313 398.7109,1389.2734 413.7109,1389.2734 L423.7109,1389.2734" fill="none" style="stroke:#181818;stroke-width:1;"/><path d="M154.0791,1924.0938 L164.0791,1924.0938 C179.0791,1924.0938 179.0791,1248.5313 194.0791,1248.5313 L204.0791,1248.5313" fill="none" style="stroke:#181818;stroke-width:1;"/><rect fill="#F1F1F1" height="36.2969" rx="12.5" ry="12.5" style="stroke:#181818;stroke-width:1.5;" width="63.3057" x="204.0791" y="1511.8672"/><text fill="#000000" font-family="sans-serif" font-size="14" lengthAdjust="spacing" textLength="43.3057" x="214.0791" y="1534.8623">Forms</text><rect fill="#F1F1F1" height="36.2969" rx="12.5" ry="12.5" style="stroke:#181818;stroke-width:1.5;" width="183.3721" x="317.3848" y="1427.4219"/><text fill="#000000" font-family="sans-serif" font-size="14" lengthAdjust="spacing" textLength="163.3721" x="327.3848" y="1450.417">Template-driven Forms</text><path d="M267.3848,1530.0156 L277.3848,1530.0156 C292.3848,1530.0156 292.3848,1445.5703 307.3848,1445.5703 L317.3848,1445.5703" fill="none" style="stroke:#181818;stroke-width:1;"/><rect fill="#F1F1F1" height="36.2969" rx="12.5" ry="12.5" style="stroke:#181818;stroke-width:1.5;" width="128.6504" x="317.3848" y="1483.7188"/><text fill="#000000" font-family="sans-serif" font-size="14" lengthAdjust="spacing" textLength="108.6504" x="327.3848" y="1506.7139">Reactive Forms</text><path d="M267.3848,1530.0156 L277.3848,1530.0156 C292.3848,1530.0156 292.3848,1501.8672 307.3848,1501.8672 L317.3848,1501.8672" fill="none" style="stroke:#181818;stroke-width:1;"/><rect fill="#F1F1F1" height="36.2969" rx="12.5" ry="12.5" style="stroke:#181818;stroke-width:1.5;" width="130.6807" x="317.3848" y="1540.0156"/><text fill="#000000" font-family="sans-serif" font-size="14" lengthAdjust="spacing" textLength="110.6807" x="327.3848" y="1563.0107">Form Validation</text><path d="M267.3848,1530.0156 L277.3848,1530.0156 C292.3848,1530.0156 292.3848,1558.1641 307.3848,1558.1641 L317.3848,1558.1641" fill="none" style="stroke:#181818;stroke-width:1;"/><rect fill="#F1F1F1" height="36.2969" rx="12.5" ry="12.5" style="stroke:#181818;stroke-width:1.5;" width="148.5908" x="317.3848" y="1596.3125"/><text fill="#000000" font-family="sans-serif" font-size="14" lengthAdjust="spacing" textLength="128.5908" x="327.3848" y="1619.3076">Custom Validators</text><path d="M267.3848,1530.0156 L277.3848,1530.0156 C292.3848,1530.0156 292.3848,1614.4609 307.3848,1614.4609 L317.3848,1614.4609" fill="none" style="stroke:#181818;stroke-width:1;"/><path d="M154.0791,1924.0938 L164.0791,1924.0938 C179.0791,1924.0938 179.0791,1530.0156 194.0791,1530.0156 L204.0791,1530.0156" fill="none" style="stroke:#181818;stroke-width:1;"/><rect fill="#F1F1F1" height="36.2969" rx="12.5" ry="12.5" style="stroke:#181818;stroke-width:1.5;" width="105.333" x="204.0791" y="1737.0547"/><text fill="#000000" font-family="sans-serif" font-size="14" lengthAdjust="spacing" textLength="85.333" x="214.0791" y="1760.0498">HTTP &amp; APIs</text><rect fill="#F1F1F1" height="36.2969" rx="12.5" ry="12.5" style="stroke:#181818;stroke-width:1.5;" width="90.9229" x="359.4121" y="1652.6094"/><text fill="#000000" font-family="sans-serif" font-size="14" lengthAdjust="spacing" textLength="70.9229" x="369.4121" y="1675.6045">HttpClient</text><path d="M309.4121,1755.2031 L319.4121,1755.2031 C334.4121,1755.2031 334.4121,1670.7578 349.4121,1670.7578 L359.4121,1670.7578" fill="none" style="stroke:#181818;stroke-width:1;"/><rect fill="#F1F1F1" height="36.2969" rx="12.5" ry="12.5" style="stroke:#181818;stroke-width:1.5;" width="164.2041" x="359.4121" y="1708.9063"/><text fill="#000000" font-family="sans-serif" font-size="14" lengthAdjust="spacing" textLength="144.2041" x="369.4121" y="1731.9014">REST API Integration</text><path d="M309.4121,1755.2031 L319.4121,1755.2031 C334.4121,1755.2031 334.4121,1727.0547 349.4121,1727.0547 L359.4121,1727.0547" fill="none" style="stroke:#181818;stroke-width:1;"/><rect fill="#F1F1F1" height="36.2969" rx="12.5" ry="12.5" style="stroke:#181818;stroke-width:1.5;" width="105.1621" x="359.4121" y="1765.2031"/><text fill="#000000" font-family="sans-serif" font-size="14" lengthAdjust="spacing" textLength="85.1621" x="369.4121" y="1788.1982">Interceptors</text><path d="M309.4121,1755.2031 L319.4121,1755.2031 C334.4121,1755.2031 334.4121,1783.3516 349.4121,1783.3516 L359.4121,1783.3516" fill="none" style="stroke:#181818;stroke-width:1;"/><rect fill="#F1F1F1" height="36.2969" rx="12.5" ry="12.5" style="stroke:#181818;stroke-width:1.5;" width="121.5342" x="359.4121" y="1821.5"/><text fill="#000000" font-family="sans-serif" font-size="14" lengthAdjust="spacing" textLength="101.5342" x="369.4121" y="1844.4951">Error Handling</text><path d="M309.4121,1755.2031 L319.4121,1755.2031 C334.4121,1755.2031 334.4121,1839.6484 349.4121,1839.6484 L359.4121,1839.6484" fill="none" style="stroke:#181818;stroke-width:1;"/><path d="M154.0791,1924.0938 L164.0791,1924.0938 C179.0791,1924.0938 179.0791,1755.2031 194.0791,1755.2031 L204.0791,1755.2031" fill="none" style="stroke:#181818;stroke-width:1;"/><rect fill="#F1F1F1" height="36.2969" rx="12.5" ry="12.5" style="stroke:#181818;stroke-width:1.5;" width="204.5771" x="204.0791" y="1934.0938"/><text fill="#000000" font-family="sans-serif" font-size="14" lengthAdjust="spacing" textLength="184.5771" x="214.0791" y="1957.0889">State Management &amp; RxJS</text><rect fill="#F1F1F1" height="36.2969" rx="12.5" ry="12.5" style="stroke:#181818;stroke-width:1.5;" width="222.043" x="458.6563" y="1877.7969"/><text fill="#000000" font-family="sans-serif" font-size="14" lengthAdjust="spacing" textLength="202.043" x="468.6563" y="1900.792">RxJS Observables &amp; Subjects</text><path d="M408.6563,1952.2422 L418.6563,1952.2422 C433.6563,1952.2422 433.6563,1895.9453 448.6563,1895.9453 L458.6563,1895.9453" fill="none" style="stroke:#181818;stroke-width:1;"/><rect fill="#F1F1F1" height="36.2969" rx="12.5" ry="12.5" style="stroke:#181818;stroke-width:1.5;" width="264.4805" x="458.6563" y="1934.0938"/><text fill="#000000" font-family="sans-serif" font-size="14" lengthAdjust="spacing" textLength="244.4805" x="468.6563" y="1957.0889">State Management (NgRx / Redux)</text><path d="M408.6563,1952.2422 L418.6563,1952.2422 C433.6563,1952.2422 433.6563,1952.2422 448.6563,1952.2422 L458.6563,1952.2422" fill="none" style="stroke:#181818;stroke-width:1;"/><rect fill="#F1F1F1" height="36.2969" rx="12.5" ry="12.5" style="stroke:#181818;stroke-width:1.5;" width="70.2988" x="458.6563" y="1990.3906"/><text fill="#000000" font-family="sans-serif" font-size="14" lengthAdjust="spacing" textLength="50.2988" x="468.6563" y="2013.3857">Signals</text><path d="M408.6563,1952.2422 L418.6563,1952.2422 C433.6563,1952.2422 433.6563,2008.5391 448.6563,2008.5391 L458.6563,2008.5391" fill="none" style="stroke:#181818;stroke-width:1;"/><path d="M154.0791,1924.0938 L164.0791,1924.0938 C179.0791,1924.0938 179.0791,1952.2422 194.0791,1952.2422 L204.0791,1952.2422" fill="none" style="stroke:#181818;stroke-width:1;"/><rect fill="#F1F1F1" height="36.2969" rx="12.5" ry="12.5" style="stroke:#181818;stroke-width:1.5;" width="255.3408" x="204.0791" y="2215.5781"/><text fill="#000000" font-family="sans-serif" font-size="14" lengthAdjust="spacing" textLength="235.3408" x="214.0791" y="2238.5732">Change Detection &amp; Performance</text><rect fill="#F1F1F1" height="36.2969" rx="12.5" ry="12.5" style="stroke:#181818;stroke-width:1.5;" width="210.4971" x="509.4199" y="2046.6875"/><text fill="#000000" font-family="sans-serif" font-size="14" lengthAdjust="spacing" textLength="190.4971" x="519.4199" y="2069.6826">Change Detection Strategy</text><path d="M459.4199,2233.7266 L469.4199,2233.7266 C484.4199,2233.7266 484.4199,2064.8359 499.4199,2064.8359 L509.4199,2064.8359" fill="none" style="stroke:#181818;stroke-width:1;"/><rect fill="#F1F1F1" height="36.2969" rx="12.5" ry="12.5" style="stroke:#181818;stroke-width:1.5;" width="71.2764" x="509.4199" y="2102.9844"/><text fill="#000000" font-family="sans-serif" font-size="14" lengthAdjust="spacing" textLength="51.2764" x="519.4199" y="2125.9795">Zone.js</text><path d="M459.4199,2233.7266 L469.4199,2233.7266 C484.4199,2233.7266 484.4199,2121.1328 499.4199,2121.1328 L509.4199,2121.1328" fill="none" style="stroke:#181818;stroke-width:1;"/><rect fill="#F1F1F1" height="36.2969" rx="12.5" ry="12.5" style="stroke:#181818;stroke-width:1.5;" width="137.8105" x="509.4199" y="2159.2813"/><text fill="#000000" font-family="sans-serif" font-size="14" lengthAdjust="spacing" textLength="117.8105" x="519.4199" y="2182.2764">OnPush Strategy</text><path d="M459.4199,2233.7266 L469.4199,2233.7266 C484.4199,2233.7266 484.4199,2177.4297 499.4199,2177.4297 L509.4199,2177.4297" fill="none" style="stroke:#181818;stroke-width:1;"/><rect fill="#F1F1F1" height="36.2969" rx="12.5" ry="12.5" style="stroke:#181818;stroke-width:1.5;" width="76.5811" x="509.4199" y="2215.5781"/><text fill="#000000" font-family="sans-serif" font-size="14" lengthAdjust="spacing" textLength="56.5811" x="519.4199" y="2238.5732">TrackBy</text><path d="M459.4199,2233.7266 L469.4199,2233.7266 C484.4199,2233.7266 484.4199,2233.7266 499.4199,2233.7266 L509.4199,2233.7266" fill="none" style="stroke:#181818;stroke-width:1;"/><rect fill="#F1F1F1" height="36.2969" rx="12.5" ry="12.5" style="stroke:#181818;stroke-width:1.5;" width="109.5303" x="509.4199" y="2271.875"/><text fill="#000000" font-family="sans-serif" font-size="14" lengthAdjust="spacing" textLength="89.5303" x="519.4199" y="2294.8701">Memoization</text><path d="M459.4199,2233.7266 L469.4199,2233.7266 C484.4199,2233.7266 484.4199,2290.0234 499.4199,2290.0234 L509.4199,2290.0234" fill="none" style="stroke:#181818;stroke-width:1;"/><rect fill="#F1F1F1" height="36.2969" rx="12.5" ry="12.5" style="stroke:#181818;stroke-width:1.5;" width="93.2607" x="509.4199" y="2328.1719"/><text fill="#000000" font-family="sans-serif" font-size="14" lengthAdjust="spacing" textLength="73.2607" x="519.4199" y="2351.167">Pure Pipes</text><path d="M459.4199,2233.7266 L469.4199,2233.7266 C484.4199,2233.7266 484.4199,2346.3203 499.4199,2346.3203 L509.4199,2346.3203" fill="none" style="stroke:#181818;stroke-width:1;"/><rect fill="#F1F1F1" height="36.2969" rx="12.5" ry="12.5" style="stroke:#181818;stroke-width:1.5;" width="174.5947" x="509.4199" y="2384.4688"/><text fill="#000000" font-family="sans-serif" font-size="14" lengthAdjust="spacing" textLength="154.5947" x="519.4199" y="2407.4639">Lazy Loading Modules</text><path d="M459.4199,2233.7266 L469.4199,2233.7266 C484.4199,2233.7266 484.4199,2402.6172 499.4199,2402.6172 L509.4199,2402.6172" fill="none" style="stroke:#181818;stroke-width:1;"/><path d="M154.0791,1924.0938 L164.0791,1924.0938 C179.0791,1924.0938 179.0791,2233.7266 194.0791,2233.7266 L204.0791,2233.7266" fill="none" style="stroke:#181818;stroke-width:1;"/><rect fill="#F1F1F1" height="36.2969" rx="12.5" ry="12.5" style="stroke:#181818;stroke-width:1.5;" width="102.3936" x="204.0791" y="2525.2109"/><text fill="#000000" font-family="sans-serif" font-size="14" lengthAdjust="spacing" textLength="82.3936" x="214.0791" y="2548.2061">Styling &amp; UI</text><rect fill="#F1F1F1" height="36.2969" rx="12.5" ry="12.5" style="stroke:#181818;stroke-width:1.5;" width="147.4561" x="356.4727" y="2440.7656"/><text fill="#000000" font-family="sans-serif" font-size="14" lengthAdjust="spacing" textLength="127.4561" x="366.4727" y="2463.7607">CSS / SCSS / SASS</text><path d="M306.4727,2543.3594 L316.4727,2543.3594 C331.4727,2543.3594 331.4727,2458.9141 346.4727,2458.9141 L356.4727,2458.9141" fill="none" style="stroke:#181818;stroke-width:1;"/><rect fill="#F1F1F1" height="36.2969" rx="12.5" ry="12.5" style="stroke:#181818;stroke-width:1.5;" width="148.1875" x="356.4727" y="2497.0625"/><text fill="#000000" font-family="sans-serif" font-size="14" lengthAdjust="spacing" textLength="128.1875" x="366.4727" y="2520.0576">Component Styles</text><path d="M306.4727,2543.3594 L316.4727,2543.3594 C331.4727,2543.3594 331.4727,2515.2109 346.4727,2515.2109 L356.4727,2515.2109" fill="none" style="stroke:#181818;stroke-width:1;"/><rect fill="#F1F1F1" height="36.2969" rx="12.5" ry="12.5" style="stroke:#181818;stroke-width:1.5;" width="156.3154" x="356.4727" y="2553.3594"/><text fill="#000000" font-family="sans-serif" font-size="14" lengthAdjust="spacing" textLength="136.3154" x="366.4727" y="2576.3545">View Encapsulation</text><path d="M306.4727,2543.3594 L316.4727,2543.3594 C331.4727,2543.3594 331.4727,2571.5078 346.4727,2571.5078 L356.4727,2571.5078" fill="none" style="stroke:#181818;stroke-width:1;"/><rect fill="#F1F1F1" height="36.2969" rx="12.5" ry="12.5" style="stroke:#181818;stroke-width:1.5;" width="228.667" x="356.4727" y="2609.6563"/><text fill="#000000" font-family="sans-serif" font-size="14" lengthAdjust="spacing" textLength="208.667" x="366.4727" y="2632.6514">Angular Material / UI Libraries</text><path d="M306.4727,2543.3594 L316.4727,2543.3594 C331.4727,2543.3594 331.4727,2627.8047 346.4727,2627.8047 L356.4727,2627.8047" fill="none" style="stroke:#181818;stroke-width:1;"/><path d="M154.0791,1924.0938 L164.0791,1924.0938 C179.0791,1924.0938 179.0791,2543.3594 194.0791,2543.3594 L204.0791,2543.3594" fill="none" style="stroke:#181818;stroke-width:1;"/><rect fill="#F1F1F1" height="36.2969" rx="12.5" ry="12.5" style="stroke:#181818;stroke-width:1.5;" width="77.4902" x="204.0791" y="2722.25"/><text fill="#000000" font-family="sans-serif" font-size="14" lengthAdjust="spacing" textLength="57.4902" x="214.0791" y="2745.2451">Security</text><rect fill="#F1F1F1" height="36.2969" rx="12.5" ry="12.5" style="stroke:#181818;stroke-width:1.5;" width="236.3574" x="331.5693" y="2665.9531"/><text fill="#000000" font-family="sans-serif" font-size="14" lengthAdjust="spacing" textLength="216.3574" x="341.5693" y="2688.9482">Authentication &amp; Authorization</text><path d="M281.5693,2740.3984 L291.5693,2740.3984 C306.5693,2740.3984 306.5693,2684.1016 321.5693,2684.1016 L331.5693,2684.1016" fill="none" style="stroke:#181818;stroke-width:1;"/><rect fill="#F1F1F1" height="36.2969" rx="12.5" ry="12.5" style="stroke:#181818;stroke-width:1.5;" width="113.3789" x="331.5693" y="2722.25"/><text fill="#000000" font-family="sans-serif" font-size="14" lengthAdjust="spacing" textLength="93.3789" x="341.5693" y="2745.2451">JWT Handling</text><path d="M281.5693,2740.3984 L291.5693,2740.3984 C306.5693,2740.3984 306.5693,2740.3984 321.5693,2740.3984 L331.5693,2740.3984" fill="none" style="stroke:#181818;stroke-width:1;"/><rect fill="#F1F1F1" height="36.2969" rx="12.5" ry="12.5" style="stroke:#181818;stroke-width:1.5;" width="270.708" x="331.5693" y="2778.5469"/><text fill="#000000" font-family="sans-serif" font-size="14" lengthAdjust="spacing" textLength="250.708" x="341.5693" y="2801.542">XSS, CSRF Protection &amp; Sanitization</text><path d="M281.5693,2740.3984 L291.5693,2740.3984 C306.5693,2740.3984 306.5693,2796.6953 321.5693,2796.6953 L331.5693,2796.6953" fill="none" style="stroke:#181818;stroke-width:1;"/><path d="M154.0791,1924.0938 L164.0791,1924.0938 C179.0791,1924.0938 179.0791,2740.3984 194.0791,2740.3984 L204.0791,2740.3984" fill="none" style="stroke:#181818;stroke-width:1;"/><rect fill="#F1F1F1" height="36.2969" rx="12.5" ry="12.5" style="stroke:#181818;stroke-width:1.5;" width="191.1992" x="204.0791" y="3003.7344"/><text fill="#000000" font-family="sans-serif" font-size="14" lengthAdjust="spacing" textLength="171.1992" x="214.0791" y="3026.7295">Build, CLI &amp; Deployment</text><rect fill="#F1F1F1" height="36.2969" rx="12.5" ry="12.5" style="stroke:#181818;stroke-width:1.5;" width="213.6621" x="445.2783" y="2834.8438"/><text fill="#000000" font-family="sans-serif" font-size="14" lengthAdjust="spacing" textLength="193.6621" x="455.2783" y="2857.8389">Angular CLI &amp; Build Process</text><path d="M395.2783,3021.8828 L405.2783,3021.8828 C420.2783,3021.8828 420.2783,2852.9922 435.2783,2852.9922 L445.2783,2852.9922" fill="none" style="stroke:#181818;stroke-width:1;"/><rect fill="#F1F1F1" height="36.2969" rx="12.5" ry="12.5" style="stroke:#181818;stroke-width:1.5;" width="178.9287" x="445.2783" y="2891.1406"/><text fill="#000000" font-family="sans-serif" font-size="14" lengthAdjust="spacing" textLength="158.9287" x="455.2783" y="2914.1357">AOT vs JIT Compilation</text><path d="M395.2783,3021.8828 L405.2783,3021.8828 C420.2783,3021.8828 420.2783,2909.2891 435.2783,2909.2891 L445.2783,2909.2891" fill="none" style="stroke:#181818;stroke-width:1;"/><rect fill="#F1F1F1" height="36.2969" rx="12.5" ry="12.5" style="stroke:#181818;stroke-width:1.5;" width="109.9883" x="445.2783" y="2947.4375"/><text fill="#000000" font-family="sans-serif" font-size="14" lengthAdjust="spacing" textLength="89.9883" x="455.2783" y="2970.4326">Ivy Renderer</text><path d="M395.2783,3021.8828 L405.2783,3021.8828 C420.2783,3021.8828 420.2783,2965.5859 435.2783,2965.5859 L445.2783,2965.5859" fill="none" style="stroke:#181818;stroke-width:1;"/><rect fill="#F1F1F1" height="36.2969" rx="12.5" ry="12.5" style="stroke:#181818;stroke-width:1.5;" width="209.0957" x="445.2783" y="3003.7344"/><text fill="#000000" font-family="sans-serif" font-size="14" lengthAdjust="spacing" textLength="189.0957" x="455.2783" y="3026.7295">Environment Configuration</text><path d="M395.2783,3021.8828 L405.2783,3021.8828 C420.2783,3021.8828 420.2783,3021.8828 435.2783,3021.8828 L445.2783,3021.8828" fill="none" style="stroke:#181818;stroke-width:1;"/><rect fill="#F1F1F1" height="36.2969" rx="12.5" ry="12.5" style="stroke:#181818;stroke-width:1.5;" width="149.1514" x="445.2783" y="3060.0313"/><text fill="#000000" font-family="sans-serif" font-size="14" lengthAdjust="spacing" textLength="129.1514" x="455.2783" y="3083.0264">Build Optimization</text><path d="M395.2783,3021.8828 L405.2783,3021.8828 C420.2783,3021.8828 420.2783,3078.1797 435.2783,3078.1797 L445.2783,3078.1797" fill="none" style="stroke:#181818;stroke-width:1;"/><rect fill="#F1F1F1" height="36.2969" rx="12.5" ry="12.5" style="stroke:#181818;stroke-width:1.5;" width="134.6318" x="445.2783" y="3116.3281"/><text fill="#000000" font-family="sans-serif" font-size="14" lengthAdjust="spacing" textLength="114.6318" x="455.2783" y="3139.3232">Production Build</text><path d="M395.2783,3021.8828 L405.2783,3021.8828 C420.2783,3021.8828 420.2783,3134.4766 435.2783,3134.4766 L445.2783,3134.4766" fill="none" style="stroke:#181818;stroke-width:1;"/><rect fill="#F1F1F1" height="36.2969" rx="12.5" ry="12.5" style="stroke:#181818;stroke-width:1.5;" width="266.251" x="445.2783" y="3172.625"/><text fill="#000000" font-family="sans-serif" font-size="14" lengthAdjust="spacing" textLength="246.251" x="455.2783" y="3195.6201">Deployment to S3 / Nginx / Apache</text><path d="M395.2783,3021.8828 L405.2783,3021.8828 C420.2783,3021.8828 420.2783,3190.7734 435.2783,3190.7734 L445.2783,3190.7734" fill="none" style="stroke:#181818;stroke-width:1;"/><path d="M154.0791,1924.0938 L164.0791,1924.0938 C179.0791,1924.0938 179.0791,3021.8828 194.0791,3021.8828 L204.0791,3021.8828" fill="none" style="stroke:#181818;stroke-width:1;"/><rect fill="#F1F1F1" height="36.2969" rx="12.5" ry="12.5" style="stroke:#181818;stroke-width:1.5;" width="71.5977" x="204.0791" y="3313.3672"/><text fill="#000000" font-family="sans-serif" font-size="14" lengthAdjust="spacing" textLength="51.5977" x="214.0791" y="3336.3623">Testing</text><rect fill="#F1F1F1" height="36.2969" rx="12.5" ry="12.5" style="stroke:#181818;stroke-width:1.5;" width="234.2861" x="325.6768" y="3228.9219"/><text fill="#000000" font-family="sans-serif" font-size="14" lengthAdjust="spacing" textLength="214.2861" x="335.6768" y="3251.917">Unit Testing (Jasmine / Karma)</text><path d="M275.6768,3331.5156 L285.6768,3331.5156 C300.6768,3331.5156 300.6768,3247.0703 315.6768,3247.0703 L325.6768,3247.0703" fill="none" style="stroke:#181818;stroke-width:1;"/><rect fill="#F1F1F1" height="36.2969" rx="12.5" ry="12.5" style="stroke:#181818;stroke-width:1.5;" width="157.3271" x="325.6768" y="3285.2188"/><text fill="#000000" font-family="sans-serif" font-size="14" lengthAdjust="spacing" textLength="137.3271" x="335.6768" y="3308.2139">Component Testing</text><path d="M275.6768,3331.5156 L285.6768,3331.5156 C300.6768,3331.5156 300.6768,3303.3672 315.6768,3303.3672 L325.6768,3303.3672" fill="none" style="stroke:#181818;stroke-width:1;"/><rect fill="#F1F1F1" height="36.2969" rx="12.5" ry="12.5" style="stroke:#181818;stroke-width:1.5;" width="127.7891" x="325.6768" y="3341.5156"/><text fill="#000000" font-family="sans-serif" font-size="14" lengthAdjust="spacing" textLength="107.7891" x="335.6768" y="3364.5107">Service Testing</text><path d="M275.6768,3331.5156 L285.6768,3331.5156 C300.6768,3331.5156 300.6768,3359.6641 315.6768,3359.6641 L325.6768,3359.6641" fill="none" style="stroke:#181818;stroke-width:1;"/><rect fill="#F1F1F1" height="36.2969" rx="12.5" ry="12.5" style="stroke:#181818;stroke-width:1.5;" width="257.6377" x="325.6768" y="3397.8125"/><text fill="#000000" font-family="sans-serif" font-size="14" lengthAdjust="spacing" textLength="237.6377" x="335.6768" y="3420.8076">E2E Testing (Cypress / Protractor)</text><path d="M275.6768,3331.5156 L285.6768,3331.5156 C300.6768,3331.5156 300.6768,3415.9609 315.6768,3415.9609 L325.6768,3415.9609" fill="none" style="stroke:#181818;stroke-width:1;"/><path d="M154.0791,1924.0938 L164.0791,1924.0938 C179.0791,1924.0938 179.0791,3331.5156 194.0791,3331.5156 L204.0791,3331.5156" fill="none" style="stroke:#181818;stroke-width:1;"/><rect fill="#F1F1F1" height="36.2969" rx="12.5" ry="12.5" style="stroke:#181818;stroke-width:1.5;" width="138.7334" x="204.0791" y="3623"/><text fill="#000000" font-family="sans-serif" font-size="14" lengthAdjust="spacing" textLength="118.7334" x="214.0791" y="3645.9951">Advanced Topics</text><rect fill="#F1F1F1" height="36.2969" rx="12.5" ry="12.5" style="stroke:#181818;stroke-width:1.5;" width="148.3926" x="392.8125" y="3454.1094"/><text fill="#000000" font-family="sans-serif" font-size="14" lengthAdjust="spacing" textLength="128.3926" x="402.8125" y="3477.1045">Custom Directives</text><path d="M342.8125,3641.1484 L352.8125,3641.1484 C367.8125,3641.1484 367.8125,3472.2578 382.8125,3472.2578 L392.8125,3472.2578" fill="none" style="stroke:#181818;stroke-width:1;"/><rect fill="#F1F1F1" height="36.2969" rx="12.5" ry="12.5" style="stroke:#181818;stroke-width:1.5;" width="115.2109" x="392.8125" y="3510.4063"/><text fill="#000000" font-family="sans-serif" font-size="14" lengthAdjust="spacing" textLength="95.2109" x="402.8125" y="3533.4014">Custom Pipes</text><path d="M342.8125,3641.1484 L352.8125,3641.1484 C367.8125,3641.1484 367.8125,3528.5547 382.8125,3528.5547 L392.8125,3528.5547" fill="none" style="stroke:#181818;stroke-width:1;"/><rect fill="#F1F1F1" height="36.2969" rx="12.5" ry="12.5" style="stroke:#181818;stroke-width:1.5;" width="174.7656" x="392.8125" y="3566.7031"/><text fill="#000000" font-family="sans-serif" font-size="14" lengthAdjust="spacing" textLength="154.7656" x="402.8125" y="3589.6982">Dynamic Components</text><path d="M342.8125,3641.1484 L352.8125,3641.1484 C367.8125,3641.1484 367.8125,3584.8516 382.8125,3584.8516 L392.8125,3584.8516" fill="none" style="stroke:#181818;stroke-width:1;"/><rect fill="#F1F1F1" height="36.2969" rx="12.5" ry="12.5" style="stroke:#181818;stroke-width:1.5;" width="132.8408" x="392.8125" y="3623"/><text fill="#000000" font-family="sans-serif" font-size="14" lengthAdjust="spacing" textLength="112.8408" x="402.8125" y="3645.9951">Micro Frontends</text><path d="M342.8125,3641.1484 L352.8125,3641.1484 C367.8125,3641.1484 367.8125,3641.1484 382.8125,3641.1484 L392.8125,3641.1484" fill="none" style="stroke:#181818;stroke-width:1;"/><rect fill="#F1F1F1" height="36.2969" rx="12.5" ry="12.5" style="stroke:#181818;stroke-width:1.5;" width="187.1865" x="392.8125" y="3679.2969"/><text fill="#000000" font-family="sans-serif" font-size="14" lengthAdjust="spacing" textLength="167.1865" x="402.8125" y="3702.292">SSR (Angular Universal)</text><path d="M342.8125,3641.1484 L352.8125,3641.1484 C367.8125,3641.1484 367.8125,3697.4453 382.8125,3697.4453 L392.8125,3697.4453" fill="none" style="stroke:#181818;stroke-width:1;"/><rect fill="#F1F1F1" height="36.2969" rx="12.5" ry="12.5" style="stroke:#181818;stroke-width:1.5;" width="51.8623" x="392.8125" y="3735.5938"/><text fill="#000000" font-family="sans-serif" font-size="14" lengthAdjust="spacing" textLength="31.8623" x="402.8125" y="3758.5889">PWA</text><path d="M342.8125,3641.1484 L352.8125,3641.1484 C367.8125,3641.1484 367.8125,3753.7422 382.8125,3753.7422 L392.8125,3753.7422" fill="none" style="stroke:#181818;stroke-width:1;"/><rect fill="#F1F1F1" height="36.2969" rx="12.5" ry="12.5" style="stroke:#181818;stroke-width:1.5;" width="202.1846" x="392.8125" y="3791.8906"/><text fill="#000000" font-family="sans-serif" font-size="14" lengthAdjust="spacing" textLength="182.1846" x="402.8125" y="3814.8857">Internationalization (i18n)</text><path d="M342.8125,3641.1484 L352.8125,3641.1484 C367.8125,3641.1484 367.8125,3810.0391 382.8125,3810.0391 L392.8125,3810.0391" fill="none" style="stroke:#181818;stroke-width:1;"/><path d="M154.0791,1924.0938 L164.0791,1924.0938 C179.0791,1924.0938 179.0791,3641.1484 194.0791,3641.1484 L204.0791,3641.1484" fill="none" style="stroke:#181818;stroke-width:1;"/><?plantuml-src XLLBSzis4BxxL-3aKPpMQPoPJ8-M9QgIOraQWKawlQt8DOK413WWm9ZvzLayA4hAeIU2Ys_VtoxkMml6raALDJHNDsogAYV1i9bM1JQslRgwkQ4VW-m1Mb6qz3k2fgOu28k5TNH_pHPQbcWOjyO5KS2kTUaajcpoNCNZco2UwRhH2fMD5dEi6mcMSDTiZHPAi10kvdHW3nIUK5KK24CEHUTD3fv0ajhKMYFspYO7Mz5WZ3xl6-I54OqbLCQZlr5sajSS2st0QXD_LygYUO4YHEKreZZZ7z-o1O9FCNhWQ3eHONDiK9MeYfxKl_b8jGfQ0oOv-Xt59lDL2jteJb0blJrEUKkqTFt_1fO23L1B-jIqLE6O1qJCDNiIBrZqXOpjkL-fnbdsZjrldFKdAb57IbajB6a5p1U1FsO78Kk24IyiNOVVyqQEXjbIw-ynJdu0W-KOkmzifvsbhCZJCtIYWcE91bfvG78TZcmB1ceaMJJw13zxzgJXo8c8-iU1AIDYXwsMtO2FrnmBPuIDnLbeKvypxy_I4AdKoSqE8H3jHEHFx0j8KOvHprnhzL7gkUCTBFDywqcvNKNDfRNDJ0ggKxITyTnVXjvKPhGMUkKdRo1XPemsR0cgb3xTG3TByR8rAAYmzfM_PhlNnqXiVs2RVKi5XxqCbEHkxncI6dAfItEvUwN6xh1qhv5_N5GAP1hz0wWAYMyM1m9jQIYe3a0B8XRW4a9ZIKwgFjp-H-Iu_HQTRzJMjOVp-voO-VqXdjTOQ_5pBCRMxvKuo9Tz7_PAAaWl8wC-hs98d5DAF7scd5zGrIiaevxSB5C5D2sHxpSkhYbI8sZ1l2FRHF4zJPWuZdrYL51mza2cHG6fJ5wWpMawZr_piP5Uy2_dVr2ikuKV-R7079ImWw9tzE1esWZvj8eRHkg-7fXqNDZXCY2zDHgsjAitEUjQzhZAG_xY9CTLrrFRQOsOD6sPweJHAl221lr5LEw4cj7sfh6YFckIeKx4q0DYs4yfI6Orun-eVC-LK9veqmQA0yRDZAqTQl6PSXu4RF88BRr9IF1FG5IxU3FE5DDkEPDbTzbeQzOtjAXRikMhx1UXDc-2_sdPUHQNBDVDy0QaSHwVcLFfoCLvhw0MnUKxjXQ5qMnXmfPCouZp7PiCRQ8q_Lu2cLRzr-auzYeKbVP8h2wRYFT_AuhqdamDB_JL-zkxl-u-tjxjwPNyy0i0?></g></svg>